<?xml version="1.0" encoding="UTF-8"?>
<svg version="1.1" xmlns="http://www.w3.org/2000/svg" width="200" height="200">
<path d="M0 0 C66 0 132 0 200 0 C200 66 200 132 200 200 C134 200 68 200 0 200 C0 134 0 68 0 0 Z " fill="#FE582D" transform="translate(0,0)"/>
<path d="M0 0 C0.639375 0.33 1.27875 0.66 1.9375 1 C4.97930379 2.47481396 7.67302362 2.18483202 11 2 C11.66 1.67 12.32 1.34 13 1 C19.05182595 0.4682496 22.05879621 2.36948158 26.8125 5.87109375 C29.66763553 8.64975244 30.32990147 10.98668447 31.2265625 14.78125 C32.78001312 19.23761341 36.81771128 22.90885564 41 25 C41.27419061 26.97596058 41.51879231 28.9560501 41.75 30.9375 C42.90600616 36.63629793 44.60303327 38.99975953 49.21386719 42.19555664 C50.51713564 43.01566137 51.83704737 43.80995934 53.17285156 44.57592773 C55.04296875 45.68359375 55.04296875 45.68359375 58 48 C58.55078125 51.16015625 58.55078125 51.16015625 58 54 C57.01 54.99 57.01 54.99 56 56 C56 57.32 56 58.64 56 60 C56.99 60.33 57.98 60.66 59 61 C58.47731534 63.76276177 57.89130413 66.3260876 57 69 C57.66 69 58.32 69 59 69 C58.125 73.875 58.125 73.875 57 75 C56.87705377 77.71392409 56.80991036 80.42421221 56.76953125 83.140625 C55.88730592 86.41874145 54.54887081 88.03408561 51.83374023 90.06689453 C48.50708993 91.75967279 45.27443246 91.5269784 41.625 91.3125 C40.88894531 91.28994141 40.15289062 91.26738281 39.39453125 91.24414062 C37.59546158 91.18572927 35.79745247 91.09606337 34 91 C34.0309375 92.010625 34.061875 93.02125 34.09375 94.0625 C34.00120494 97.9493927 33.39389632 101.22577111 32.5 105 C30.69244199 113.20672888 29.30227279 122.90681836 32 131 C35.56323334 132.75282933 39.38544771 133.75429762 43.1875 134.875 C48.10470908 136.36288441 52.80483226 138.07944192 57.53125 140.08203125 C60.20417703 141.07592026 62.83926923 141.64923114 65.625 142.25 C71.73747012 143.90131795 75.55571496 146.65933213 79 152 C82.10567672 159.55743995 83 165.7819158 83 174 C28.22 174 -26.56 174 -83 174 C-79.54778704 162.49262348 -79.54778704 162.49262348 -77.25 158.1875 C-76.80140625 157.31480469 -76.3528125 156.44210938 -75.890625 155.54296875 C-71.69019191 149.89321267 -65.6190379 147.12395982 -59.25 144.5 C-57.83702731 143.89893626 -56.42426752 143.29737181 -55.01171875 142.6953125 C-54.32770996 142.40688477 -53.64370117 142.11845703 -52.93896484 141.82128906 C-35.9233819 134.61398347 -27.19548338 129.08565657 -19.94921875 111.44140625 C-19.27096032 109.6380746 -18.6302326 107.82067196 -18 106 C-19.0725 106.0825 -20.145 106.165 -21.25 106.25 C-25 106 -25 106 -27.4375 104.125 C-29 102 -29 102 -29 100 C-29.94875 99.690625 -30.8975 99.38125 -31.875 99.0625 C-35 98 -35 98 -37 97 C-37.67578125 95.0390625 -37.67578125 95.0390625 -38.3125 92.625 C-39.44272262 88.8058977 -39.44272262 88.8058977 -42.5 86.3125 C-43.325 85.879375 -44.15 85.44625 -45 85 C-46.04808041 83.02477154 -47.0520411 81.02518491 -48 79 C-48.99 78.34 -49.98 77.68 -51 77 C-51.37109375 74.8984375 -51.37109375 74.8984375 -51.4375 72.375 C-51.6855977 68.63196086 -52.24815052 66.03612948 -54.0625 62.75 C-55.95329587 59.26842384 -56.85659296 57.0259869 -56 53 C-54.2632959 50.38964902 -52.36164741 48.06797105 -50 46 C-49.34 46 -48.68 46 -48 46 C-48.05800781 45.04738281 -48.11601563 44.09476563 -48.17578125 43.11328125 C-48.55002714 32.70924552 -48.55002714 32.70924552 -45.625 28.9375 C-44.75875 28.298125 -43.8925 27.65875 -43 27 C-41.19961375 23.75930476 -40.93996302 21.06460645 -40.75 17.4375 C-40.40413737 13.52207399 -40.24557288 13.21422315 -37.0625 10.4375 C-34 9 -34 9 -32 9 C-31.71125 8.21625 -31.4225 7.4325 -31.125 6.625 C-30 4 -30 4 -28 2 C-25.96875 1.69702148 -25.96875 1.69702148 -23.5 1.62109375 C-22.613125 1.58693359 -21.72625 1.55277344 -20.8125 1.51757812 C-19.884375 1.49115234 -18.95625 1.46472656 -18 1.4375 C-16.16653314 1.37765768 -14.33318447 1.31403881 -12.5 1.24609375 C-11.6853125 1.22216553 -10.870625 1.1982373 -10.03125 1.17358398 C-6.43658145 0.86639536 -3.8473914 -0.23084348 0 0 Z " fill="#020822" transform="translate(104,26)"/>
<path d="M0 0 C0.639375 0.33 1.27875 0.66 1.9375 1 C4.97930379 2.47481396 7.67302362 2.18483202 11 2 C11.66 1.67 12.32 1.34 13 1 C19.05182595 0.4682496 22.05879621 2.36948158 26.8125 5.87109375 C29.66763553 8.64975244 30.32990147 10.98668447 31.2265625 14.78125 C32.78001312 19.23761341 36.81771128 22.90885564 41 25 C41.27419061 26.97596058 41.51879231 28.9560501 41.75 30.9375 C42.90600616 36.63629793 44.60303327 38.99975953 49.21386719 42.19555664 C50.51713564 43.01566137 51.83704737 43.80995934 53.17285156 44.57592773 C55.04296875 45.68359375 55.04296875 45.68359375 58 48 C58.55078125 51.16015625 58.55078125 51.16015625 58 54 C57.01 54.99 57.01 54.99 56 56 C55.95843221 58.79394943 56.01187276 61.52468099 56.125 64.3125 C56.30731972 72.51195988 55.37722779 79.4074003 52 87 C49.06552643 89.93447357 45.81740544 89.46158423 41.875 89.625 C41.12089844 89.66367188 40.36679688 89.70234375 39.58984375 89.7421875 C37.72696816 89.83651031 35.86351745 89.91934662 34 90 C31.50971836 95.13411951 30.56857996 99.15009287 30.3125 104.9375 C30.27833984 105.62134766 30.24417969 106.30519531 30.20898438 107.00976562 C30.12758473 108.672644 30.06209475 110.3362889 30 112 C29.67 112 29.34 112 29 112 C28.67 108.04 28.34 104.08 28 100 C26.68 100.33 25.36 100.66 24 101 C22.515 100.505 22.515 100.505 21 100 C19.515 100.495 19.515 100.495 18 101 C10.89977998 101.65032045 5.24812537 101.31715929 -1.0625 97.875 C-3.25326058 96.72560885 -3.25326058 96.72560885 -7 97 C-7.99 97 -8.98 97 -10 97 C-10 95.35 -10 93.7 -10 92 C-9.01 92 -8.02 92 -7 92 C-7.495 91.525625 -7.99 91.05125 -8.5 90.5625 C-10.7377987 86.73959388 -10.66921721 83.32855386 -10 79 C-9.13451026 76.81678264 -8.11014812 74.83559645 -6.96875 72.78515625 C-5.72943705 70.50142231 -5.07444841 68.60569423 -5 66 C-6.51221059 63.85106917 -7.62569915 63.12109733 -10.125 62.3125 C-12 61 -12 61 -12.4765625 59.09765625 C-12.72565458 57.07289353 -12.8686584 55.03579477 -13 53 C-13.5775 53.94875 -14.155 54.8975 -14.75 55.875 C-16.95101956 58.93197161 -17.65621962 59.71252252 -21 61 C-25.22617436 61.57291448 -28.83997037 61.67904173 -32.5625 59.5 C-33.036875 59.005 -33.51125 58.51 -34 58 C-33.67 56.68 -33.34 55.36 -33 54 C-32.113125 54.33 -31.22625 54.66 -30.3125 55 C-27.29076653 55.91222143 -25.11626294 56.18330958 -22 56 C-22 54.68 -22 53.36 -22 52 C-25.96 50.68 -29.92 49.36 -34 48 C-34.33 48.66 -34.66 49.32 -35 50 C-36 49 -36 49 -36.375 45.5625 C-36.58125 44.386875 -36.7875 43.21125 -37 42 C-39.77260299 40.06201737 -39.77260299 40.06201737 -42 39 C-42 37.68 -42 36.36 -42 35 C-42.99 35.66 -43.98 36.32 -45 37 C-43.87548273 34.0280615 -42.77706209 31.66559313 -41 29 C-40.81194754 25.61867216 -40.73031625 22.27742495 -40.78515625 18.89257812 C-40.734375 16.78515625 -40.734375 16.78515625 -40 13 C-35.33229329 9 -35.33229329 9 -32 9 C-31.71125 8.21625 -31.4225 7.4325 -31.125 6.625 C-30 4 -30 4 -28 2 C-25.96875 1.69702148 -25.96875 1.69702148 -23.5 1.62109375 C-22.613125 1.58693359 -21.72625 1.55277344 -20.8125 1.51757812 C-19.884375 1.49115234 -18.95625 1.46472656 -18 1.4375 C-16.16653314 1.37765768 -14.33318447 1.31403881 -12.5 1.24609375 C-11.6853125 1.22216553 -10.870625 1.1982373 -10.03125 1.17358398 C-6.43658145 0.86639536 -3.8473914 -0.23084348 0 0 Z " fill="#040922" transform="translate(104,26)"/>
<path d="M0 0 C1.65 0 3.3 0 5 0 C5.33 2.97 5.66 5.94 6 9 C6.33 8.67 6.66 8.34 7 8 C10.30103673 7.61164274 12.89064506 7.31027062 15.796875 9.1171875 C17.25530213 10.34643322 18.63474003 11.66803905 20 13 C20.61875 12.360625 21.2375 11.72125 21.875 11.0625 C24.83687868 8.1877354 25.62862552 8.02994955 29.875 7.6875 C32.87411209 7.74202931 33.87462264 7.92163915 36.5 9.5625 C38.50478781 12.82028019 38.28862859 15.24782833 38 19 C34.04 19 30.08 19 26 19 C26.66 19.99 27.32 20.98 28 22 C30.54207971 22.33343551 30.54207971 22.33343551 33 22 C33.495 21.505 33.495 21.505 34 21 C35.99958364 20.95919217 38.00045254 20.95745644 40 21 C39.85795259 22.58367747 39.71119847 24.16693318 39.5625 25.75 C39.48128906 26.63171875 39.40007812 27.5134375 39.31640625 28.421875 C39.03761535 30.69350452 38.61209423 32.79851823 38 35 C38.99 34.34 39.98 33.68 41 33 C41.99 33 42.98 33 44 33 C43.855625 33.66 43.71125 34.32 43.5625 35 C42.87841284 38.64846483 42.44286721 42.31646959 42 46 C41.44496702 50.59884467 40.55094401 54.63796998 39 59 C38.65023242 60.32911682 38.30903983 61.66082739 38 63 C36.96875 62.95875 35.9375 62.9175 34.875 62.875 C31.07894013 62.80138006 31.07894013 62.80138006 28 64.0625 C24.30714098 65.21651845 21.76511156 64.71039841 18 64 C16.20821221 64 14.41616768 64.01536401 12.625 64.0625 C9.9643494 63.99915118 7.59833643 63.5470182 5 63 C4.01 63 3.02 63 2 63 C2 61.35 2 59.7 2 58 C2.99 58 3.98 58 5 58 C4.505 57.525625 4.01 57.05125 3.5 56.5625 C1.2622013 52.73959388 1.33078279 49.32855386 2 45 C2.86548974 42.81678264 3.88985188 40.83559645 5.03125 38.78515625 C6.27056295 36.50142231 6.92555159 34.60569423 7 32 C5.04965471 29.22845669 3.14885716 28.57442858 0 27 C0 18.09 0 9.18 0 0 Z " fill="#080C22" transform="translate(92,60)"/>
<path d="M0 0 C0.5775 0.61875 1.155 1.2375 1.75 1.875 C3.80249821 3.81347053 5.43366582 4.90014249 8 6 C8 5.34 8 4.68 8 4 C10.31 4 12.62 4 15 4 C15.33 3.01 15.66 2.02 16 1 C16.66 1 17.32 1 18 1 C18.495 1.99 18.495 1.99 19 3 C23.62 2.67 28.24 2.34 33 2 C33 3.98 33 5.96 33 8 C32.401875 8.28875 31.80375 8.5775 31.1875 8.875 C28.80672208 10.04742026 28.80672208 10.04742026 26 12 C22.90551758 12.22705078 22.90551758 12.22705078 19.14453125 12.1953125 C18.48289474 12.1924826 17.82125824 12.18965271 17.13957214 12.18673706 C15.03036263 12.17555918 12.92158075 12.15045981 10.8125 12.125 C9.38086552 12.11496707 7.94922436 12.10584176 6.51757812 12.09765625 C3.01158023 12.07562795 -0.49416813 12.04111485 -4 12 C-4 11.34 -4 10.68 -4 10 C-4.66 10 -5.32 10 -6 10 C-6.66 9.34 -7.32 8.68 -8 8 C-8.928125 8.2475 -8.928125 8.2475 -9.875 8.5 C-12 9 -12 9 -13.8359375 8.0390625 C-16.34237173 6.83561213 -17.99027 6.79383147 -20.75 6.875 C-21.94882812 6.90207031 -21.94882812 6.90207031 -23.171875 6.9296875 C-24.07679687 6.96449219 -24.07679687 6.96449219 -25 7 C-25.33 5.68 -25.66 4.36 -26 3 C-18.74 3 -11.48 3 -4 3 C-4 2.34 -4 1.68 -4 1 C-3.34 1 -2.68 1 -2 1 C-2 1.66 -2 2.32 -2 3 C-1.34 3 -0.68 3 0 3 C0 2.01 0 1.02 0 0 Z " fill="#0B1127" transform="translate(85,188)"/>
<path d="M0 0 C1.32 0.33 2.64 0.66 4 1 C4.33 2.65 4.66 4.3 5 6 C3.02 6.99 3.02 6.99 1 8 C1.66 6.02 2.32 4.04 3 2 C-3.39313216 7.32761013 -6.13659101 14.79761458 -7 23 C-3.06326356 21.68775452 -0.77280706 20.08089673 2 17 C1.52491926 19.44327236 1.04141878 21.85089239 0.375 24.25 C0.25125 24.8275 0.1275 25.405 0 26 C1.96822886 27.96822886 5.34808709 27.66248381 8 28 C7.34 26.68 6.68 25.36 6 24 C6.66 24 7.32 24 8 24 C8 22.68 8 21.36 8 20 C6.68 20.33 5.36 20.66 4 21 C3.63076923 15.58461538 3.63076923 15.58461538 5.5 12.625 C5.995 12.08875 6.49 11.5525 7 11 C8.98 11.66 10.96 12.32 13 13 C13 14.98 13 16.96 13 19 C14.98 14.545 14.98 14.545 17 10 C17.66 10 18.32 10 19 10 C18.06733827 16.38942884 16.85760353 19.51605828 12 24 C11.12761142 26.67790896 11.12761142 26.67790896 11 29 C12.155 28.649375 13.31 28.29875 14.5 27.9375 C18.9834299 26.79262415 22.472146 27.19145464 27 28 C27 29.32 27 30.64 27 32 C25.96875 31.95875 24.9375 31.9175 23.875 31.875 C20.07894013 31.80138006 20.07894013 31.80138006 17 33.0625 C13.30714098 34.21651845 10.76511156 33.71039841 7 33 C5.20821221 33 3.41616768 33.01536401 1.625 33.0625 C-1.0356506 32.99915118 -3.40166357 32.5470182 -6 32 C-6.99 32 -7.98 32 -9 32 C-9 30.35 -9 28.7 -9 27 C-8.01 27 -7.02 27 -6 27 C-6.495 26.525625 -6.99 26.05125 -7.5 25.5625 C-9.74531269 21.72675748 -9.64370912 18.34146042 -9 14 C-7.1423037 8.49682439 -3.84517816 4.27242018 0 0 Z " fill="#190F22" transform="translate(103,91)"/>
<path d="M0 0 C1.32 0 2.64 0 4 0 C3.47731534 2.76276177 2.89130413 5.3260876 2 8 C2.66 8 3.32 8 4 8 C3.125 12.875 3.125 12.875 2 14 C1.87705377 16.71392409 1.80991036 19.42421221 1.76953125 22.140625 C0.88730592 25.41874145 -0.45112919 27.03408561 -3.16625977 29.06689453 C-6.49291007 30.75967279 -9.72556754 30.5269784 -13.375 30.3125 C-14.11105469 30.28994141 -14.84710938 30.26738281 -15.60546875 30.24414062 C-17.40453842 30.18572927 -19.20254753 30.09606337 -21 30 C-20.9690625 31.010625 -20.938125 32.02125 -20.90625 33.0625 C-20.99879506 36.9493927 -21.60610368 40.22577111 -22.5 44 C-24.30755801 52.20672888 -25.69772721 61.90681836 -23 70 C-19.43676666 71.75282933 -15.61455229 72.75429762 -11.8125 73.875 C-6.06624558 75.61589257 -0.52500221 77.6553038 5 80 C5 80.33 5 80.66 5 81 C0.30976546 80.43393721 -4.34500026 79.81462495 -9 79 C-9.66 80.32 -10.32 81.64 -11 83 C-12.32 83 -13.64 83 -15 83 C-15 81.35 -15 79.7 -15 78 C-14.01 78 -13.02 78 -12 78 C-12.99 77.67 -13.98 77.34 -15 77 C-15.33 76.34 -15.66 75.68 -16 75 C-18.32156597 74.59270772 -20.6568787 74.25561323 -23 74 C-23.33 73.01 -23.66 72.02 -24 71 C-24.66 71 -25.32 71 -26 71 C-26 70.34 -26 69.68 -26 69 C-26.66 69 -27.32 69 -28 69 C-28.02690844 66.37493198 -28.04679404 63.75013827 -28.0625 61.125 C-28.07087891 60.37863281 -28.07925781 59.63226563 -28.08789062 58.86328125 C-28.11328125 53.2265625 -28.11328125 53.2265625 -27 51 C-26.34 51 -25.68 51 -25 51 C-25.06960937 49.515 -25.06960937 49.515 -25.140625 48 C-25.62506135 33.92641172 -25.62506135 33.92641172 -22.953125 29.3203125 C-18.10401918 26.04231697 -10.66896041 26.89453097 -5 27 C-4.34760842 25.60721983 -3.70339448 24.21060788 -3.0625 22.8125 C-2.70285156 22.03519531 -2.34320313 21.25789063 -1.97265625 20.45703125 C-0.07681276 15.66793264 0.11426652 11.31238596 0.0625 6.1875 C0.05347656 5.02605469 0.04445312 3.86460938 0.03515625 2.66796875 C0.02355469 1.78753906 0.01195312 0.90710938 0 0 Z " fill="#360608" transform="translate(159,87)"/>
<path d="M0 0 C0.33 0.66 0.66 1.32 1 2 C1.99 2.33 2.98 2.66 4 3 C4.33 3.99 4.66 4.98 5 6 C5.639375 6.2475 6.27875 6.495 6.9375 6.75 C9 8 9 8 9.875 11.4375 C10.63011931 15.22825176 10.63011931 15.22825176 13.9375 16.6875 C14.948125 17.120625 15.95875 17.55375 17 18 C19.44621173 20.60929251 20 21.37031224 20 25 C20.63808594 25.04898438 21.27617188 25.09796875 21.93359375 25.1484375 C22.75988281 25.22320312 23.58617187 25.29796875 24.4375 25.375 C25.26121094 25.44460937 26.08492187 25.51421875 26.93359375 25.5859375 C27.61550781 25.72257812 28.29742187 25.85921875 29 26 C29.495 26.99 29.495 26.99 30 28 C29.566875 29.2065625 29.566875 29.2065625 29.125 30.4375 C28.09186409 33.70909706 27.80762986 36.17471615 27.625 39.5625 C27.24982302 44.25539174 26.63377884 46.75906212 23 50 C22.01 50.639375 21.02 51.27875 20 51.9375 C16.81999315 53.84712716 16.81999315 53.84712716 14.9375 57.125 C11.89402933 61.64111777 8.44659133 61.91003012 3.375 62.9375 C2.24191406 63.13666016 2.24191406 63.13666016 1.0859375 63.33984375 C-1.34994912 64.11075169 -2.22091719 65.21628416 -4 67 C-6.0859375 67.6953125 -6.0859375 67.6953125 -8.375 68.125 C-9.16519531 68.2796875 -9.95539062 68.434375 -10.76953125 68.59375 C-11.87361328 68.79484375 -11.87361328 68.79484375 -13 69 C-14.5159375 69.309375 -14.5159375 69.309375 -16.0625 69.625 C-16.701875 69.74875 -17.34125 69.8725 -18 70 C-14.64970816 67.19975607 -11.14741574 65.66086844 -7.125 64 C-2.65700834 62.14718273 1.69728452 60.21046097 6 58 C6.79664062 57.60039062 7.59328125 57.20078125 8.4140625 56.7890625 C9.14367187 56.40492188 9.87328125 56.02078125 10.625 55.625 C11.72714844 55.05652344 11.72714844 55.05652344 12.8515625 54.4765625 C21.0602335 48.83496679 24.86003864 37.07099949 28 28 C26.39125 28.12375 26.39125 28.12375 24.75 28.25 C21 28 21 28 18.5625 26.125 C17 24 17 24 17 22 C16.05125 21.690625 15.1025 21.38125 14.125 21.0625 C11 20 11 20 9 19 C8.32421875 17.0390625 8.32421875 17.0390625 7.6875 14.625 C6.33799123 10.25286699 5.04702651 9.17916812 1 7 C-0.3125 3.8125 -0.3125 3.8125 -1 1 C-0.67 0.67 -0.34 0.34 0 0 Z " fill="#370A0C" transform="translate(58,104)"/>
<path d="M0 0 C0.99 0.66 1.98 1.32 3 2 C2.34 3.32 1.68 4.64 1 6 C0.34 5.67 -0.32 5.34 -1 5 C-3.3329866 4.95977609 -5.66706666 4.95679753 -8 5 C-8.33 6.32 -8.66 7.64 -9 9 C-7.96939453 9.16435547 -7.96939453 9.16435547 -6.91796875 9.33203125 C-6.01691406 9.49058594 -5.11585937 9.64914063 -4.1875 9.8125 C-3.29417969 9.96332031 -2.40085937 10.11414063 -1.48046875 10.26953125 C1.25149608 11.07406263 2.34506781 11.7023757 4 14 C4.66426526 16.74562975 4.59190002 19.24163098 4 22 C1.14924622 24.94271357 -1.62617283 25.20611468 -5.5625 25.375 C-9.23366026 25.26486519 -11.37072604 24.74359022 -14 22 C-13.67 20.68 -13.34 19.36 -13 18 C-12.113125 18.33 -11.22625 18.66 -10.3125 19 C-7.29076653 19.91222143 -5.11626294 20.18330958 -2 20 C-2 18.68 -2 17.36 -2 16 C-2.61488281 15.81824219 -3.22976562 15.63648437 -3.86328125 15.44921875 C-4.67152344 15.19785156 -5.47976562 14.94648437 -6.3125 14.6875 C-7.11300781 14.44386719 -7.91351563 14.20023438 -8.73828125 13.94921875 C-11.14823672 12.93778666 -12.39668192 12.04981172 -14 10 C-14.51924297 6.51365432 -14.39852706 4.68836492 -12.625 1.625 C-8.64499595 -0.83881203 -4.57011742 -0.65614374 0 0 Z " fill="#E2E6F0" transform="translate(84,62)"/>
<path d="M0 0 C1.65 0 3.3 0 5 0 C5.33 2.97 5.66 5.94 6 9 C6.33 8.67 6.66 8.34 7 8 C13.21376487 7.53972112 13.21376487 7.53972112 15.71484375 9.00390625 C17.75871851 12.17843513 17.3115892 15.54436827 17.1875 19.1875 C17.16719727 20.31188477 17.16719727 20.31188477 17.14648438 21.45898438 C17.11118539 23.30629767 17.05737917 25.15324066 17 27 C15.35 27 13.7 27 12 27 C12 22.05 12 17.1 12 12 C10.02 12.66 8.04 13.32 6 14 C5.67 18.29 5.34 22.58 5 27 C3.35 27 1.7 27 0 27 C0 18.09 0 9.18 0 0 Z " fill="#D9DDE5" transform="translate(92,60)"/>
<path d="M0 0 C2.5 1.5625 2.5 1.5625 4 4 C4.25 7.75 4.25 7.75 4 11 C0.04 11 -3.92 11 -8 11 C-7.01 12.485 -7.01 12.485 -6 14 C-2.89505874 14.31845551 -0.98273923 13.99424641 2 13 C2.66 13.33 3.32 13.66 4 14 C2.25 17.875 2.25 17.875 0 19 C-6.97142857 19.68571429 -6.97142857 19.68571429 -11 17 C-13.5598578 13.16021329 -13.85231571 10.48825826 -13 6 C-10.12186873 -0.14873498 -6.57309991 -0.90932212 0 0 Z " fill="#D3D6E0" transform="translate(126,68)"/>
<path d="M0 0 C1.37453198 -0.05498128 2.74973578 -0.09322822 4.125 -0.125 C5.27355469 -0.15980469 5.27355469 -0.15980469 6.4453125 -0.1953125 C9 0 9 0 11.85546875 0.9765625 C16.47728874 2.48080702 21.02748909 2.45058526 25.85546875 2.65625 C29 3 29 3 32 5 C32 5.66 32 6.32 32 7 C31.29875 6.67 30.5975 6.34 29.875 6 C26.70893872 4.89876129 24.32935296 4.77804314 21 5 C20.34 5.33 19.68 5.66 19 6 C14.56515474 6.24638029 11.88842401 6.00692852 8 4 C3.8492571 3.71258858 3.8492571 3.71258858 0 5 C-1.47474666 5.0812101 -2.95270922 5.10828798 -4.4296875 5.10546875 C-5.30753906 5.12029297 -6.18539062 5.13511719 -7.08984375 5.15039062 C-8.93864532 5.17502403 -10.78780903 5.18039894 -12.63671875 5.16601562 C-15.21998173 5.22842242 -17.49896131 5.34348441 -20 6 C-22.47398528 8.83482984 -22.47398528 8.83482984 -24 12 C-25.19625 12.515625 -26.3925 13.03125 -27.625 13.5625 C-29.54582004 14.39139926 -29.54582004 14.39139926 -31 16 C-31.83644143 19.32409626 -32.18670566 22.48825989 -32.41796875 25.90625 C-33.10141476 29.53906371 -34.10243027 30.77361874 -37 33 C-37.66 33 -38.32 33 -39 33 C-38.67 31.68 -38.34 30.36 -38 29 C-37.34 29 -36.68 29 -36 29 C-36.04640625 28.19175781 -36.0928125 27.38351563 -36.140625 26.55078125 C-36.43495687 17.83645552 -36.43495687 17.83645552 -34.375 13.875 C-31.69182148 11.75670117 -29.21598711 11.0719957 -26 10 C-25.65657551 8.66923011 -25.32380126 7.33568021 -25 6 C-19.78311506 2.50519359 -15.15525938 2.63540654 -9.125 2.8125 C-8.24585937 2.82603516 -7.36671875 2.83957031 -6.4609375 2.85351562 C-4.30702448 2.88863377 -2.15342996 2.94243306 0 3 C0 2.01 0 1.02 0 0 Z " fill="#DC563A" transform="translate(96,23)"/>
<path d="M0 0 C0.66 0 1.32 0 2 0 C1.773125 0.763125 1.54625 1.52625 1.3125 2.3125 C1.1578125 3.6428125 1.1578125 3.6428125 1 5 C2.33378575 6.8354799 2.33378575 6.8354799 4 8 C3.01 9.32 2.02 10.64 1 12 C1.33 12.33 1.66 12.66 2 13 C3 14 3 14 3.0625 16.5625 C3.041875 17.366875 3.02125 18.17125 3 19 C4.65 18.34 6.3 17.68 8 17 C7.835 17.7425 7.67 18.485 7.5 19.25 C6.88074304 22.19006578 6.88074304 22.19006578 7 26 C3.625 26.125 3.625 26.125 0 26 C-0.66 25.34 -1.32 24.68 -2 24 C-1.625 22.0625 -1.625 22.0625 -1 20 C-1 19.01 -1 18.02 -1 17 C-1.598125 17.66 -2.19625 18.32 -2.8125 19 C-5 21 -5 21 -8 21 C-7.62099575 13.16724554 -5.71400009 5.71400009 0 0 Z " fill="#090D23" transform="translate(104,93)"/>
<path d="M0 0 C0.33 0.66 0.66 1.32 1 2 C3.31 2 5.62 2 8 2 C7.01 2.66 6.02 3.32 5 4 C4.55920678 5.86253476 4.55920678 5.86253476 4.62890625 7.9921875 C4.61150391 8.77980469 4.59410156 9.56742188 4.57617188 10.37890625 C4.56710017 12.0351396 4.56185514 13.69139858 4.56054688 15.34765625 C4.41560719 21.47510647 4.41560719 21.47510647 1.96484375 24.5703125 C1.31644531 25.04210937 0.66804688 25.51390625 0 26 C-0.33 23.36 -0.66 20.72 -1 18 C-4.96 17.01 -8.92 16.02 -13 15 C-12.67 13.35 -12.34 11.7 -12 10 C-8.66666667 10 -5.33333333 10 -2 10 C-2 9.34 -2 8.68 -2 8 C-2.66 7.34 -3.32 6.68 -4 6 C-3.525625 5.566875 -3.05125 5.13375 -2.5625 4.6875 C-0.76313043 2.97690387 -0.76313043 2.97690387 0 0 Z " fill="#0A0E25" transform="translate(88,56)"/>
<path d="M0 0 C1.32 0 2.64 0 4 0 C4 0.99 4 1.98 4 3 C4.66 3 5.32 3 6 3 C7.1577506 6.47325181 7.06866652 9.36067448 7 13 C8.32 13 9.64 13 11 13 C11.268125 13.969375 11.53625 14.93875 11.8125 15.9375 C12.204375 16.948125 12.59625 17.95875 13 19 C13.99 19.33 14.98 19.66 16 20 C19.18032318 24.96130416 20.04001924 30.28529099 21 36 C24.91063224 37.47047336 24.91063224 37.47047336 29 38 C31.125 39.875 31.125 39.875 33 42 C33 42.66 33 43.32 33 44 C33.66 44 34.32 44 35 44 C35 46.64 35 49.28 35 52 C34.34 52 33.68 52 33 52 C33 50.02 33 48.04 33 46 C32.44441406 45.73316406 31.88882813 45.46632812 31.31640625 45.19140625 C19.13974465 38.92853646 19.13974465 38.92853646 16.875 32.375 C16.10506717 29.22527477 15.68544521 26.2503995 16 23 C15.41476563 22.73445313 14.82953125 22.46890625 14.2265625 22.1953125 C10.00249252 19.92765388 5.89943803 16.50258147 4.24609375 11.90234375 C4.10300781 11.21269531 3.95992187 10.52304687 3.8125 9.8125 C2.95766119 5.80133328 2.13608619 4.50886895 -1 2 C-0.01 2 0.98 2 2 2 C1.34 1.34 0.68 0.68 0 0 Z M29 36 C29.66 36 30.32 36 31 36 C31 36.66 31 37.32 31 38 C30.34 38 29.68 38 29 38 C29 37.34 29 36.68 29 36 Z " fill="#D15139" transform="translate(129,28)"/>
<path d="M0 0 C0.99 0 1.98 0 3 0 C2.855625 0.66 2.71125 1.32 2.5625 2 C1.87841284 5.64846483 1.44286721 9.31646959 1 13 C0.44641484 17.58684847 -0.41110844 21.65702974 -2 26 C-2.33 25.34 -2.66 24.68 -3 24 C-3.66 23.67 -4.32 23.34 -5 23 C-5.28875 22.360625 -5.5775 21.72125 -5.875 21.0625 C-7.22909764 18.57998766 -8.42178493 18.03128603 -11 17 C-11.125 14.125 -11.125 14.125 -11 11 C-9 9 -9 9 -7.0625 8.75 C-4.6512397 8.1288569 -4.6512397 8.1288569 -3.375 5.0625 C-2.92125 4.051875 -2.4675 3.04125 -2 2 C-1.34 1.34 -0.68 0.68 0 0 Z " fill="#131829" transform="translate(133,93)"/>
<path d="M0 0 C1.58323688 -0.027193 3.16661062 -0.04648306 4.75 -0.0625 C6.07257813 -0.07990234 6.07257813 -0.07990234 7.421875 -0.09765625 C9.7818838 -0.00826198 11.74498524 0.33087179 14 1 C14 1.66 14 2.32 14 3 C14.66 3 15.32 3 16 3 C16 3.66 16 4.32 16 5 C16.86625 4.9175 17.7325 4.835 18.625 4.75 C22.86359664 5.06397012 24.82829953 6.20588292 28 9 C28.375 11.75 28.375 11.75 28 14 C28.66 14 29.32 14 30 14 C33.39366878 19.37330889 33.32712342 23.86946489 33 30 C31.01387197 26.35457514 30.16040276 22.76182257 29.26953125 18.73046875 C26.98709826 13.82148211 23.56657982 10.13201877 18.57055664 7.9284668 C15.93802471 7.09720613 13.30911684 6.39480955 10.625 5.75 C8.82270748 5.29752036 7.02301435 4.83451382 5.2265625 4.359375 C4.43846191 4.16827148 3.65036133 3.97716797 2.83837891 3.78027344 C2.23171387 3.5227832 1.62504883 3.26529297 1 3 C0.67 2.01 0.34 1.02 0 0 Z " fill="#F3502F" transform="translate(154,162)"/>
<path d="M0 0 C1.34977849 0.63270867 2.68352881 1.30062468 4 2 C5.99110401 2.38290462 7.99100513 2.72604615 10 3 C10 3.33 10 3.66 10 4 C2.25 4.125 2.25 4.125 0 3 C-4.14503661 2.75212983 -4.14503661 2.75212983 -8 4 C-9.44848582 4.08342159 -10.90070869 4.10732861 -12.3515625 4.09765625 C-13.20234375 4.09443359 -14.053125 4.09121094 -14.9296875 4.08789062 C-15.81914063 4.07951172 -16.70859375 4.07113281 -17.625 4.0625 C-18.5221875 4.05798828 -19.419375 4.05347656 -20.34375 4.04882812 C-22.56256648 4.03702591 -24.78125018 4.02056155 -27 4 C-27.10699219 5.10601562 -27.21398437 6.21203125 -27.32421875 7.3515625 C-28 11 -28 11 -30.8125 13.375 C-33.35214256 14.66971974 -35.26961369 15.41491722 -38 16 C-38.66 16.66 -39.32 17.32 -40 18 C-40.375 15.75 -40.375 15.75 -40 13 C-35.02702703 9 -35.02702703 9 -32 9 C-31.71125 8.21625 -31.4225 7.4325 -31.125 6.625 C-30 4 -30 4 -28 2 C-25.96875 1.69702148 -25.96875 1.69702148 -23.5 1.62109375 C-22.613125 1.58693359 -21.72625 1.55277344 -20.8125 1.51757812 C-19.884375 1.49115234 -18.95625 1.46472656 -18 1.4375 C-16.16653314 1.37765768 -14.33318447 1.31403881 -12.5 1.24609375 C-11.6853125 1.22216553 -10.870625 1.1982373 -10.03125 1.17358398 C-6.43658145 0.86639536 -3.8473914 -0.23084348 0 0 Z " fill="#420B0C" transform="translate(104,26)"/>
<path d="M0 0 C0.33 0 0.66 0 1 0 C1 5.28 1 10.56 1 16 C1.99 16.33 2.98 16.66 4 17 C4 17.66 4 18.32 4 19 C7.67597984 20.53562189 11.36737301 21.74896988 15.1875 22.875 C20.93375442 24.61589257 26.47499779 26.6553038 32 29 C32 29.33 32 29.66 32 30 C27.30976546 29.43393721 22.65499974 28.81462495 18 28 C17.34 29.32 16.68 30.64 16 32 C14.68 32 13.36 32 12 32 C12 30.35 12 28.7 12 27 C12.99 27 13.98 27 15 27 C14.01 26.67 13.02 26.34 12 26 C11.67 25.34 11.34 24.68 11 24 C8.67843403 23.59270772 6.3431213 23.25561323 4 23 C3.67 22.01 3.34 21.02 3 20 C2.34 20 1.68 20 1 20 C1 19.34 1 18.68 1 18 C0.34 18 -0.32 18 -1 18 C-1.02690844 15.37493198 -1.04679404 12.75013827 -1.0625 10.125 C-1.07087891 9.37863281 -1.07925781 8.63226563 -1.08789062 7.86328125 C-1.11328125 2.2265625 -1.11328125 2.2265625 0 0 Z " fill="#1F0710" transform="translate(132,138)"/>
<path d="M0 0 C0.33 0 0.66 0 1 0 C1.33573433 3.60914402 1.30857109 5.50153901 -0.625 8.625 C-3 11 -3 11 -6 12.9375 C-9.18000685 14.84712716 -9.18000685 14.84712716 -11.0625 18.125 C-14.10597067 22.64111777 -17.55340867 22.91003012 -22.625 23.9375 C-23.75808594 24.13666016 -23.75808594 24.13666016 -24.9140625 24.33984375 C-27.34994912 25.11075169 -28.22091719 26.21628416 -30 28 C-32.0859375 28.6953125 -32.0859375 28.6953125 -34.375 29.125 C-35.16519531 29.2796875 -35.95539062 29.434375 -36.76953125 29.59375 C-37.50558594 29.7278125 -38.24164063 29.861875 -39 30 C-40.010625 30.20625 -41.02125 30.4125 -42.0625 30.625 C-42.701875 30.74875 -43.34125 30.8725 -44 31 C-40.64970816 28.19975607 -37.14741574 26.66086844 -33.125 25 C-23.57530454 21.03986711 -13.93549467 16.73314699 -6 10 C-5.34 9.67 -4.68 9.34 -4 9 C-3.67 8.01 -3.34 7.02 -3 6 C-2.34 6 -1.68 6 -1 6 C-0.67 4.02 -0.34 2.04 0 0 Z " fill="#34070C" transform="translate(84,143)"/>
<path d="M0 0 C0.33 0 0.66 0 1 0 C1.10823773 2.24893954 1.18569645 4.49937575 1.25 6.75 C1.29640625 8.00296875 1.3428125 9.2559375 1.390625 10.546875 C1 14 1 14 -0.5 16.40625 C-3.96769324 18.61690444 -7.25514563 18.67236149 -11.25 18.75 C-11.99507812 18.77964844 -12.74015625 18.80929688 -13.5078125 18.83984375 C-15.33796672 18.9102343 -17.16898769 18.95741832 -19 19 C-20.38313143 22.82461039 -21.27331686 26.2577832 -21.5625 30.3125 C-21.8983871 34.8983871 -21.8983871 34.8983871 -23 36 C-24.17328971 41.99681407 -24.0991667 47.90675749 -24 54 C-24.66 53.67 -25.32 53.34 -26 53 C-26.71372592 40.27188775 -24.56276343 28.43383294 -22 16 C-20.90300781 15.97421875 -19.80601562 15.9484375 -18.67578125 15.921875 C-17.22131552 15.8655731 -15.76688997 15.80822623 -14.3125 15.75 C-13.59126953 15.73582031 -12.87003906 15.72164062 -12.12695312 15.70703125 C-8.43952762 15.53865566 -6.30002341 15.17053962 -3.03125 13.3125 C-0.55419408 10.49246711 -0.32003634 8.96101758 -0.1875 5.25 C-0.13980469 4.26515625 -0.09210938 3.2803125 -0.04296875 2.265625 C-0.02169922 1.14414063 -0.02169922 1.14414063 0 0 Z " fill="#CA5844" transform="translate(160,101)"/>
<path d="M0 0 C0.66 0 1.32 0 2 0 C2.33 0.66 2.66 1.32 3 2 C7.62 1.67 12.24 1.34 17 1 C17 2.98 17 4.96 17 7 C16.401875 7.28875 15.80375 7.5775 15.1875 7.875 C12.80672208 9.04742026 12.80672208 9.04742026 10 11 C9.01 11 8.02 11 7 11 C7 10.34 7 9.68 7 9 C6.34 9 5.68 9 5 9 C5 8.34 5 7.68 5 7 C2.03 6.505 2.03 6.505 -1 6 C-1.042721 4.33388095 -1.04063832 2.66617115 -1 1 C-0.67 0.67 -0.34 0.34 0 0 Z " fill="#1A1F34" transform="translate(101,189)"/>
<path d="M0 0 C0.33 0 0.66 0 1 0 C1.78693051 10.96456512 1.78693051 10.96456512 -1.375 15.125 C-2.24125 15.74375 -3.1075 16.3625 -4 17 C-6.21508816 18.76351671 -6.21508816 18.76351671 -6.08203125 20.98828125 C-5.54369701 25.95022447 -5.54369701 25.95022447 -3.5 30.4375 C-1.83767892 33.27729852 -1.78703928 34.76398018 -1.625 38 C-1.3539887 41.96501322 -1.20456944 42.75963091 1.5 45.9375 C2.7375 46.9584375 2.7375 46.9584375 4 48 C4.33 48.99 4.66 49.98 5 51 C5.66 51.66 6.32 52.32 7 53 C6.34 53 5.68 53 5 53 C4.67 53.99 4.34 54.98 4 56 C1 50.25 1 50.25 1 48 C0.01 47.67 -0.98 47.34 -2 47 C-2.83033392 44.49717854 -3.48781852 42.12373476 -4.0625 39.5625 C-5.08017702 34.31878265 -5.08017702 34.31878265 -8 30 C-9.5242744 18.43603363 -9.5242744 18.43603363 -6.7265625 13.96484375 C-4.59523669 12.18180777 -2.83324134 11 0 11 C0 7.37 0 3.74 0 0 Z " fill="#E15440" transform="translate(55,60)"/>
<path d="M0 0 C-4.01384396 2.67589597 -8.39636589 4.3486517 -12.84375 6.16992188 C-19.55103763 9.01295451 -25.71525512 12.00974025 -28.8125 18.9375 C-29.204375 19.79988281 -29.59625 20.66226563 -30 21.55078125 C-31.13565358 24.33224529 -32.16434798 27.1132021 -33 30 C-33.66 29.67 -34.32 29.34 -35 29 C-35 28.01 -35 27.02 -35 26 C-34.34 26 -33.68 26 -33 26 C-33 23.69 -33 21.38 -33 19 C-32.34 19 -31.68 19 -31 19 C-31.2784375 17.6078125 -31.2784375 17.6078125 -31.5625 16.1875 C-32 13 -32 13 -31 10 C-30.236875 9.87625 -29.47375 9.7525 -28.6875 9.625 C-25.79732864 9.11897208 -25.79732864 9.11897208 -23 7 C-21.34608154 6.60828247 -19.67654729 6.27942455 -18 6 C-16.33333333 5.66666667 -14.66666667 5.33333333 -13 5 C-12.67 4.01 -12.34 3.02 -12 2 C-7.92532275 0.51117562 -4.33458585 -0.26270217 0 0 Z " fill="#D0513D" transform="translate(56,166)"/>
<path d="M0 0 C1.32 0.33 2.64 0.66 4 1 C4.33 2.65 4.66 4.3 5 6 C3.02 6.99 3.02 6.99 1 8 C1.66 6.02 2.32 4.04 3 2 C-3.39313216 7.32761013 -6.13659101 14.79761458 -7 23 C-3.06326356 21.68775452 -0.77280706 20.08089673 2 17 C1.67226629 20.03153686 1.35865103 21.61573103 -0.75 23.875 C-3.61539161 25.30769581 -5.00168883 24.97242524 -8 24 C-9.53123685 22.46876315 -9.24307107 21.06787176 -9.3125 18.9375 C-9.21235949 11.05143486 -5.1026334 5.66959266 0 0 Z " fill="#CED4DD" transform="translate(103,91)"/>
<path d="M0 0 C1.74991334 -0.02715383 3.49994945 -0.04646551 5.25 -0.0625 C6.71179688 -0.07990234 6.71179688 -0.07990234 8.203125 -0.09765625 C10.65758678 -0.01195577 12.66168914 0.29293934 15 1 C15 2.98 15 4.96 15 7 C15.99 7.33 16.98 7.66 18 8 C18 8.33 18 8.66 18 9 C15.03 9 12.06 9 9 9 C8.67 8.34 8.34 7.68 8 7 C5.88672575 6.09274566 5.88672575 6.09274566 3.4375 5.375 C2.19806641 4.98441406 2.19806641 4.98441406 0.93359375 4.5859375 C0.29550781 4.39257812 -0.34257812 4.19921875 -1 4 C-0.67 2.68 -0.34 1.36 0 0 Z " fill="#151A2E" transform="translate(132,191)"/>
<path d="M0 0 C0.33 0.66 0.66 1.32 1 2 C1.66 2 2.32 2 3 2 C2.67 2.99 2.34 3.98 2 5 C1.278125 4.95875 0.55625 4.9175 -0.1875 4.875 C-3.03633761 4.8320909 -3.03633761 4.8320909 -5.5625 6.125 C-6.366875 6.41375 -7.17125 6.7025 -8 7 C-8.91845703 6.5359375 -8.91845703 6.5359375 -9.85546875 6.0625 C-12.35614416 4.82354971 -13.98118289 4.7935642 -16.75 4.875 C-17.94882812 4.90207031 -17.94882812 4.90207031 -19.171875 4.9296875 C-20.07679687 4.96449219 -20.07679687 4.96449219 -21 5 C-21.33 3.68 -21.66 2.36 -22 1 C-14.74 0.67 -7.48 0.34 0 0 Z " fill="#697083" transform="translate(81,190)"/>
<path d="M0 0 C0.66 0 1.32 0 2 0 C0.69077264 8.21712434 0.69077264 8.21712434 -1.875 11.125 C-4.42840345 12.17640142 -5.4502381 11.9349127 -8 11 C-8.66 11 -9.32 11 -10 11 C-10.99 11 -11.98 11 -13 11 C-13.36923077 5.58461538 -13.36923077 5.58461538 -11.5 2.625 C-11.005 2.08875 -10.51 1.5525 -10 1 C-8.02 1.66 -6.04 2.32 -4 3 C-4 4.98 -4 6.96 -4 9 C-2.68 6.03 -1.36 3.06 0 0 Z " fill="#696F78" transform="translate(120,101)"/>
<path d="M0 0 C3.3 0.99 6.6 1.98 10 3 C10.33 4.65 10.66 6.3 11 8 C10.67 8.33 10.34 8.66 10 9 C6.26341315 8.57699017 2.62346766 8.01457095 -1 7 C-1.33 8.65 -1.66 10.3 -2 12 C-2.33 12 -2.66 12 -3 12 C-3.12375 11.195625 -3.2475 10.39125 -3.375 9.5625 C-3.684375 8.2940625 -3.684375 8.2940625 -4 7 C-4.66 6.67 -5.32 6.34 -6 6 C-5.67 5.01 -5.34 4.02 -5 3 C-3.68 3 -2.36 3 -1 3 C-0.67 2.01 -0.34 1.02 0 0 Z " fill="#1B1E26" transform="translate(72,74)"/>
<path d="M0 0 C0.33 0 0.66 0 1 0 C1.50538188 4.75058963 1.07063886 7.27404881 -1.4375 11.375 C-3.85670674 15.34358633 -4.60446239 18.43631663 -4.76171875 23.0546875 C-5 25 -5 25 -7 28 C-8.32 27.67 -9.64 27.34 -11 27 C-10.01 25.515 -10.01 25.515 -9 24 C-8.34 24 -7.68 24 -7 24 C-7.05800781 23.04738281 -7.11601563 22.09476563 -7.17578125 21.11328125 C-7.55002714 10.70924552 -7.55002714 10.70924552 -4.625 6.9375 C-3.75875 6.298125 -2.8925 5.65875 -2 5 C-0.680982 2.33466965 -0.680982 2.33466965 0 0 Z " fill="#240811" transform="translate(63,48)"/>
<path d="M0 0 C0.33 0.66 0.66 1.32 1 2 C1.99 2 2.98 2 4 2 C3.64987213 4.59094622 3.26229035 6.5774211 1.875 8.8125 C-1.07144869 10.67858417 -3.60900381 10.30827238 -7 10 C-7.66 9.34 -8.32 8.68 -9 8 C-8.34 7.34 -7.68 6.68 -7 6 C-7 4.68 -7 3.36 -7 2 C-4.35261084 0.5393715 -3.10551666 0 0 0 Z " fill="#0E142A" transform="translate(126,190)"/>
<path d="M0 0 C0.66 0.66 1.32 1.32 2 2 C3.92435222 1.5023227 5.84755143 0.99850627 7.7578125 0.44921875 C11.34982877 -0.27043608 14.41542071 0.35989655 18 1 C18 2.32 18 3.64 18 5 C16.96875 4.95875 15.9375 4.9175 14.875 4.875 C11.07894013 4.80138006 11.07894013 4.80138006 8 6.0625 C4.32867774 7.20978821 1.73156873 6.74631375 -2 6 C-2 4.68 -2 3.36 -2 2 C-1.34 2 -0.68 2 0 2 C0 1.34 0 0.68 0 0 Z " fill="#6D3B3E" transform="translate(112,118)"/>
<path d="M0 0 C0.68835938 0.59748047 0.68835938 0.59748047 1.390625 1.20703125 C2.00421875 1.73683594 2.6178125 2.26664063 3.25 2.8125 C3.85328125 3.33457031 4.4565625 3.85664062 5.078125 4.39453125 C6.96712331 6.05464056 6.96712331 6.05464056 9.16796875 7.3125 C11.76610798 9.70566876 11.64480749 11.7283572 12.0625 15.1875 C13.19792506 21.02123565 14.85062582 23.36112431 19.6875 26.8125 C21.43553399 27.91210634 23.19967626 28.98827308 25 30 C24.01 30.33 23.02 30.66 22 31 C20.30327614 29.70513179 18.6396721 28.36639342 17 27 C16.15824219 26.74734375 15.31648437 26.4946875 14.44921875 26.234375 C12 25 12 25 10.85546875 22.28515625 C10.63503906 21.22167969 10.41460937 20.15820312 10.1875 19.0625 C9.95417969 18.00160156 9.72085938 16.94070312 9.48046875 15.84765625 C9 13 9 13 9 10 C8.2575 9.95875 7.515 9.9175 6.75 9.875 C2.8527978 8.63498112 1.89948581 6.51756632 0 3 C0 2.01 0 1.02 0 0 Z " fill="#30070A" transform="translate(134,42)"/>
<path d="M0 0 C1.9375 0.5 1.9375 0.5 4 2 C4.68790422 4.69658452 4.81946464 7.2017019 5 10 C5.928125 10.268125 6.85625 10.53625 7.8125 10.8125 C11.48420869 12.18039147 12.92463278 13.60202261 15.25 16.625 C17.91943495 18.72241318 20.69379974 18.68809431 24 19 C23.33501617 23.38889325 21.81242323 26.9811485 20 31 C18.53273202 27.18510326 19.56663581 24.70988378 21 21 C20.37351562 20.82984375 19.74703125 20.6596875 19.1015625 20.484375 C18.28429687 20.24203125 17.46703125 19.9996875 16.625 19.75 C15.81289062 19.51796875 15.00078125 19.2859375 14.1640625 19.046875 C11.50801424 17.76199967 11.16488775 16.63022165 10 14 C9.195625 13.690625 8.39125 13.38125 7.5625 13.0625 C4.18226779 11.6609403 3.53361228 10.28631202 2 7 C1.27833809 4.68308546 0.59940471 2.35151077 0 0 Z " fill="#CE5846" transform="translate(62,113)"/>
<path d="M0 0 C0.33 0 0.66 0 1 0 C0.67 2.64 0.34 5.28 0 8 C-0.763125 7.814375 -1.52625 7.62875 -2.3125 7.4375 C-5.08967375 6.77180827 -5.08967375 6.77180827 -8 8 C-15.04055861 8.53524715 -20.74983486 8.40918098 -27 5 C-26.01 4.67 -25.02 4.34 -24 4 C-23.34 3.34 -22.68 2.68 -22 2 C-22 2.66 -22 3.32 -22 4 C-17.545 4.99 -17.545 4.99 -13 6 C-12.67 5.34 -12.34 4.68 -12 4 C-10.35 4 -8.7 4 -7 4 C-6.67 3.34 -6.34 2.68 -6 2 C-6 2.66 -6 3.32 -6 4 C-5.01 4 -4.02 4 -3 4 C-2.67 3.34 -2.34 2.68 -2 2 C-2 2.66 -2 3.32 -2 4 C-1.34 4 -0.68 4 0 4 C0 2.68 0 1.36 0 0 Z " fill="#160A16" transform="translate(130,119)"/>
<path d="M0 0 C0.33 0.66 0.66 1.32 1 2 C-2.39331647 10.59302529 -7.69963721 15.19566705 -16 19 C-17.0725 19.556875 -18.145 20.11375 -19.25 20.6875 C-22 22 -22 22 -24 22 C-24 21.34 -24 20.68 -24 20 C-22.730447 19.35165346 -21.45930294 18.70642185 -20.1875 18.0625 C-19.47980469 17.70285156 -18.77210937 17.34320313 -18.04296875 16.97265625 C-16 16 -16 16 -13 15 C-11.79117904 12.99983534 -11.79117904 12.99983534 -11 11 C-10.01 11 -9.02 11 -8 11 C-8 10.34 -8 9.68 -8 9 C-7.01 9 -6.02 9 -5 9 C-4.34 7.35 -3.68 5.7 -3 4 C-2.34 4 -1.68 4 -1 4 C-0.67 2.68 -0.34 1.36 0 0 Z " fill="#CF4F40" transform="translate(80,144)"/>
<path d="M0 0 C1.32 0 2.64 0 4 0 C4 0.99 4 1.98 4 3 C4.66 3 5.32 3 6 3 C7.1577506 6.47325181 7.06866652 9.36067448 7 13 C8.32 13 9.64 13 11 13 C11.69710731 14.28650706 12.38242876 15.57940665 13.0625 16.875 C13.44535156 17.59429687 13.82820312 18.31359375 14.22265625 19.0546875 C14.47917969 19.69664063 14.73570312 20.33859375 15 21 C14.67 21.66 14.34 22.32 14 23 C7.89700033 17.57511141 4.49877537 14.03888607 3 6 C1.04283243 3.5366901 1.04283243 3.5366901 -1 2 C-0.01 2 0.98 2 2 2 C1.34 1.34 0.68 0.68 0 0 Z " fill="#C54C36" transform="translate(129,28)"/>
<path d="M0 0 C0.33 0.66 0.66 1.32 1 2 C1.99 2.33 2.98 2.66 4 3 C4.33 3.99 4.66 4.98 5 6 C5.639375 6.2475 6.27875 6.495 6.9375 6.75 C9 8 9 8 9.875 11.4375 C10.65534442 15.25627005 10.65534442 15.25627005 14.125 16.9375 C15.07375 17.288125 16.0225 17.63875 17 18 C17 18.33 17 18.66 17 19 C14.36 19 11.72 19 9 19 C8.84144531 18.38511719 8.68289062 17.77023438 8.51953125 17.13671875 C7.17428366 11.91168676 7.17428366 11.91168676 3.4375 8.3125 C2.633125 7.879375 1.82875 7.44625 1 7 C-0.3125 3.8125 -0.3125 3.8125 -1 1 C-0.67 0.67 -0.34 0.34 0 0 Z " fill="#2E070A" transform="translate(58,104)"/>
<path d="M0 0 C0.8353125 0.495 0.8353125 0.495 1.6875 1 C5.43515604 2.62060802 8.17994156 2.27335281 12 1 C12.66 1.33 13.32 1.66 14 2 C12.25 5.875 12.25 5.875 10 7 C2.73260073 7.58608059 2.73260073 7.58608059 -0.5 5 C-0.995 4.34 -1.49 3.68 -2 3 C-1.34 2.67 -0.68 2.34 0 2 C0 1.34 0 0.68 0 0 Z " fill="#D6DAE6" transform="translate(116,80)"/>
<path d="M0 0 C4.96916636 0.51405169 9.29026351 1.23384882 14 3 C14 4.65 14 6.3 14 8 C14.66 8 15.32 8 16 8 C19.39366878 13.37330889 19.32712342 17.86946489 19 24 C17.41689258 21.0942965 16.56622691 18.39969188 15.8125 15.1875 C14.2104759 9.73739792 11.66239881 6.25703216 7 3 C4.61037617 1.96526968 2.5835339 1.47452663 0 1 C0 0.67 0 0.34 0 0 Z " fill="#CB523D" transform="translate(168,168)"/>
<path d="M0 0 C0.66 0.33 1.32 0.66 2 1 C0.453125 2.1446875 0.453125 2.1446875 -1.125 3.3125 C-7.91475897 9.13819583 -11.3700156 17.36108268 -13 26 C-13.99 26 -14.98 26 -16 26 C-13.81292399 17.15577156 -10.82756428 7.33215133 -3.125 1.8125 C-2.09375 1.214375 -1.0625 0.61625 0 0 Z " fill="#39050A" transform="translate(37,174)"/>
<path d="M0 0 C-3 2 -3 2 -6 2 C-6.433125 2.86625 -6.433125 2.86625 -6.875 3.75 C-7.431875 4.86375 -7.431875 4.86375 -8 6 C-8.20625 6.721875 -8.4125 7.44375 -8.625 8.1875 C-10 10 -10 10 -11.90625 10.47265625 C-13.92934755 10.72554344 -15.96538823 10.86873472 -18 11 C-15.18780954 5.53185189 -11.4711969 2.06600651 -5.8125 -0.375 C-3 -1 -3 -1 0 0 Z " fill="#0E0616" transform="translate(48,173)"/>
<path d="M0 0 C2 3 2 3 2 7 C2.66 7 3.32 7 4 7 C4.3125 10.25 4.3125 10.25 4 14 C1.5 16.4375 1.5 16.4375 -1 18 C-1.33 15.69 -1.66 13.38 -2 11 C-1.34 11 -0.68 11 0 11 C-0.185625 10.113125 -0.37125 9.22625 -0.5625 8.3125 C-0.98042484 5.14821189 -0.80777742 3.05160358 0 0 Z " fill="#F75327" transform="translate(50,57)"/>
<path d="M0 0 C0.33 0 0.66 0 1 0 C1.33573433 3.60914402 1.30857109 5.50153901 -0.625 8.625 C-3 11 -3 11 -6 12.9375 C-9.18000685 14.84712716 -9.18000685 14.84712716 -11.0625 18.125 C-13.18095372 21.26851197 -14.41676943 22.00465817 -18 23 C-18.33 22.34 -18.66 21.68 -19 21 C-18.01 21 -17.02 21 -16 21 C-15.67 20.01 -15.34 19.02 -15 18 C-12.42906377 15.13524248 -9.97831521 12.98582148 -6.75 10.875 C-3.73996108 9.22935878 -3.73996108 9.22935878 -3 6 C-2.34 6 -1.68 6 -1 6 C-0.67 4.02 -0.34 2.04 0 0 Z " fill="#200713" transform="translate(84,143)"/>
<path d="M0 0 C1 3 1 3 0.375 5.8125 C-0.30591005 9.01665987 -0.30591005 9.01665987 1.375 11.625 C3.75978576 16.57801658 3.74499525 21.56576075 4 27 C4.66 27 5.32 27 6 27 C5.67 27.66 5.34 28.32 5 29 C4.01 28.34 3.02 27.68 2 27 C1.62890625 24.8984375 1.62890625 24.8984375 1.5625 22.375 C1.2568709 17.76398712 0.07810254 14.81057758 -2.1328125 10.81640625 C-3.4367837 8.08511521 -3.48102099 5.95484325 -3 3 C-1.5 1.125 -1.5 1.125 0 0 Z " fill="#470A0A" transform="translate(51,76)"/>
<path d="M0 0 C6.13244043 0.89514926 10.02154615 1.86651116 14 7 C14 7.66 14 8.32 14 9 C13.34 9 12.68 9 12 9 C11.67 10.65 11.34 12.3 11 14 C10.67 14 10.34 14 10 14 C10 11.69 10 9.38 10 7 C8.68 7 7.36 7 6 7 C5.67 5.68 5.34 4.36 5 3 C4.360625 2.87625 3.72125 2.7525 3.0625 2.625 C2.381875 2.41875 1.70125 2.2125 1 2 C0.67 1.34 0.34 0.68 0 0 Z " fill="#110515" transform="translate(166,168)"/>
<path d="M0 0 C2.76262368 2.76262368 2.61811333 4.97062088 3.125 8.8125 C3.29257813 10.03582031 3.46015625 11.25914063 3.6328125 12.51953125 C3.93552171 15.38882808 4.07678299 18.12063778 4 21 C2.68 20.67 1.36 20.34 0 20 C0.66 18.35 1.32 16.7 2 15 C1.34 15 0.68 15 0 15 C0.66666667 12.33333333 1.33333333 9.66666667 2 7 C0.68 6.67 -0.64 6.34 -2 6 C-1.125 1.125 -1.125 1.125 0 0 Z " fill="#BB503F" transform="translate(161,80)"/>
<path d="M0 0 C0.33 0 0.66 0 1 0 C1.10823773 2.24893954 1.18569645 4.49937575 1.25 6.75 C1.29640625 8.00296875 1.3428125 9.2559375 1.390625 10.546875 C1 14 1 14 -0.890625 16.453125 C-3 18 -3 18 -5 18 C-4.67 16.68 -4.34 15.36 -4 14 C-3.34 14 -2.68 14 -2 14 C-2.02320313 13.15695313 -2.04640625 12.31390625 -2.0703125 11.4453125 C-2.08835938 10.34960938 -2.10640625 9.25390625 -2.125 8.125 C-2.14820313 7.03445312 -2.17140625 5.94390625 -2.1953125 4.8203125 C-2 2 -2 2 0 0 Z " fill="#EE5535" transform="translate(62,38)"/>
<path d="M0 0 C0.99 0 1.98 0 3 0 C4.35439668 2.70879335 4.06501451 5.00933268 4 8 C2.04196493 8.05389087 0.08351091 8.09274217 -1.875 8.125 C-2.96554688 8.14820312 -4.05609375 8.17140625 -5.1796875 8.1953125 C-8 8 -8 8 -10 6 C-6.7169902 4.3584951 -3.57454967 5.48111376 0 6 C-0.2784375 4.7934375 -0.2784375 4.7934375 -0.5625 3.5625 C-0.706875 2.716875 -0.85125 1.87125 -1 1 C-0.67 0.67 -0.34 0.34 0 0 Z " fill="#E9ECF6" transform="translate(126,70)"/>
<path d="M0 0 C4.36097957 2.90731972 5.31710295 6.95130885 6.9375 11.8125 C8.21441825 14.44144934 9.30327815 15.01120199 12 16 C11.67 16.99 11.34 17.98 11 19 C5.33452946 17.52205116 5.33452946 17.52205116 3.87109375 15.23828125 C2.92484403 12.80688622 2.398235 10.50445214 1.9375 7.9375 C1.4336848 5.1685983 0.89262079 2.67786236 0 0 Z " fill="#F35229" transform="translate(145,48)"/>
<path d="M0 0 C2.875 -0.125 2.875 -0.125 6 0 C6.66 0.66 7.32 1.32 8 2 C8 1.34 8 0.68 8 0 C9.98 0 11.96 0 14 0 C13 3 13 3 12 4 C9.32941149 4.14115161 6.67567762 4.04247107 4 4 C3.67 4.99 3.34 5.98 3 7 C1.5 5.75 1.5 5.75 0 4 C0 2.68 0 1.36 0 0 Z " fill="#7C8393" transform="translate(85,192)"/>
<path d="M0 0 C0.99 0 1.98 0 3 0 C3 0.66 3 1.32 3 2 C6.96 2 10.92 2 15 2 C14.67 2.99 14.34 3.98 14 5 C8.98386688 6.08456932 5.04907609 5.89761353 0 5 C0 3.35 0 1.7 0 0 Z " fill="#724342" transform="translate(94,118)"/>
<path d="M0 0 C0.99 0.33 1.98 0.66 3 1 C3.99 0.67 4.98 0.34 6 0 C6 0.99 6 1.98 6 3 C7.98 3 9.96 3 12 3 C11.67 4.32 11.34 5.64 11 7 C8.36 7 5.72 7 3 7 C2.67 5.68 2.34 4.36 2 3 C1.34 3 0.68 3 0 3 C0 2.01 0 1.02 0 0 Z " fill="#04071B" transform="translate(98,84)"/>
<path d="M0 0 C0.66 1.32 1.32 2.64 2 4 C1.34 4 0.68 4 0 4 C0.33 6.31 0.66 8.62 1 11 C-0.65 11.33 -2.3 11.66 -4 12 C-4 11.34 -4 10.68 -4 10 C-4.66 10 -5.32 10 -6 10 C-6.33 8.68 -6.66 7.36 -7 6 C-5.68 6.33 -4.36 6.66 -3 7 C-2.67 6.34 -2.34 5.68 -2 5 C-2.33 4.67 -2.66 4.34 -3 4 C-3.33 3.01 -3.66 2.02 -4 1 C-3.34 1 -2.68 1 -2 1 C-2 1.66 -2 2.32 -2 3 C-1.34 3 -0.68 3 0 3 C0 2.01 0 1.02 0 0 Z " fill="#12182E" transform="translate(85,188)"/>
<path d="M0 0 C0.66 0.33 1.32 0.66 2 1 C1.67 3.97 1.34 6.94 1 10 C4.93673644 8.68775452 7.22719294 7.08089673 10 4 C9.67226629 7.03153686 9.35865103 8.61573103 7.25 10.875 C4.38460839 12.30769581 2.99831117 11.97242524 0 11 C-1 10 -1 10 -1.1328125 7.96875 C-1.13023438 7.1540625 -1.12765625 6.339375 -1.125 5.5 C-1.12757812 4.6853125 -1.13015625 3.870625 -1.1328125 3.03125 C-1 1 -1 1 0 0 Z " fill="#D2DAE2" transform="translate(95,104)"/>
<path d="M0 0 C0.33 0.99 0.66 1.98 1 3 C0.01 4.485 0.01 4.485 -1 6 C-0.67 6.99 -0.34 7.98 0 9 C-2.31 9 -4.62 9 -7 9 C-7.66 7.68 -8.32 6.36 -9 5 C-6 3 -6 3 -2 3 C-1.34 2.01 -0.68 1.02 0 0 Z " fill="#05071D" transform="translate(111,110)"/>
<path d="M0 0 C0.66 0 1.32 0 2 0 C6.59225513 14.59681093 6.59225513 14.59681093 6 22 C5.34 22 4.68 22 4 22 C3.87882813 21.09636719 3.75765625 20.19273437 3.6328125 19.26171875 C3.46523437 18.08222656 3.29765625 16.90273437 3.125 15.6875 C2.96257812 14.51574219 2.80015625 13.34398437 2.6328125 12.13671875 C2.17699379 8.85469105 2.17699379 8.85469105 0 6 C-0.125 2.8125 -0.125 2.8125 0 0 Z " fill="#3B0609" transform="translate(181,178)"/>
<path d="M0 0 C1.65 0 3.3 0 5 0 C4.5875 0.886875 4.175 1.77375 3.75 2.6875 C1.33420693 8.28196815 -0.27167816 14.16581715 -2 20 C-2.66 19.67 -3.32 19.34 -4 19 C-4 18.01 -4 17.02 -4 16 C-3.34 16 -2.68 16 -2 16 C-2 13.69 -2 11.38 -2 9 C-1.34 9 -0.68 9 0 9 C-0.185625 8.071875 -0.37125 7.14375 -0.5625 6.1875 C-1 3 -1 3 0 0 Z " fill="#EE522D" transform="translate(25,176)"/>
<path d="M0 0 C2.31 0 4.62 0 7 0 C7 3 7 3 6 5 C6.66 5 7.32 5 8 5 C8 5.66 8 6.32 8 7 C3.545 6.01 3.545 6.01 -1 5 C-0.67 3.35 -0.34 1.7 0 0 Z " fill="#232233" transform="translate(76,66)"/>
<path d="M0 0 C0.33 0 0.66 0 1 0 C1.3935986 4.19838511 0.31641577 7.22323688 -1.24609375 11.03515625 C-2.00142109 13.00370367 -2.52899482 14.94678326 -3 17 C-3.66 17 -4.32 17 -5 17 C-5.103125 17.639375 -5.20625 18.27875 -5.3125 18.9375 C-5.539375 19.618125 -5.76625 20.29875 -6 21 C-6.99 21.33 -7.98 21.66 -9 22 C-7.02713746 16.90105574 -4.6758094 11.99896121 -2.33984375 7.05859375 C-1.28971929 4.66137085 -0.50522294 2.55106397 0 0 Z " fill="#400D11" transform="translate(86,132)"/>
<path d="M0 0 C0.66 0 1.32 0 2 0 C0.6816516 8.27437088 0.6816516 8.27437088 -1.9375 11.0625 C-4 12 -4 12 -7 12 C-7 9.36 -7 6.72 -7 4 C-6.01 3.67 -5.02 3.34 -4 3 C-4 4.98 -4 6.96 -4 9 C-2.68 6.03 -1.36 3.06 0 0 Z " fill="#BEC2CE" transform="translate(120,101)"/>
<path d="M0 0 C0.66 0.66 1.32 1.32 2 2 C-3.78645644 3.25406138 -9.48868116 3.11186913 -15.375 3.0625 C-16.39722656 3.05798828 -17.41945313 3.05347656 -18.47265625 3.04882812 C-20.98183194 3.037103 -23.4908849 3.02069176 -26 3 C-26.33 3.99 -26.66 4.98 -27 6 C-27.33 5.34 -27.66 4.68 -28 4 C-27.67 3.34 -27.34 2.68 -27 2 C-26.15236084 1.96241577 -26.15236084 1.96241577 -25.28759766 1.92407227 C-22.73316258 1.80820044 -20.1791045 1.68543463 -17.625 1.5625 C-16.29082031 1.50352539 -16.29082031 1.50352539 -14.9296875 1.44335938 C-14.07890625 1.40146484 -13.228125 1.35957031 -12.3515625 1.31640625 C-11.56604004 1.27974854 -10.78051758 1.24309082 -9.97119141 1.20532227 C-6.39511954 0.83283323 -3.82925056 -0.23932816 0 0 Z " fill="#0D0518" transform="translate(104,28)"/>
<path d="M0 0 C0.33 0.66 0.66 1.32 1 2 C1.66 2 2.32 2 3 2 C2.67 2.99 2.34 3.98 2 5 C1.278125 4.95875 0.55625 4.9175 -0.1875 4.875 C-3.04424185 4.83630211 -3.04424185 4.83630211 -5.625 6.125 C-6.40875 6.41375 -7.1925 6.7025 -8 7 C-8.99 6.34 -9.98 5.68 -11 5 C-9.68 5 -8.36 5 -7 5 C-6.67 3.68 -6.34 2.36 -6 1 C-4.02 0.67 -2.04 0.34 0 0 Z " fill="#4F5668" transform="translate(81,190)"/>
<path d="M0 0 C0.99 0.33 1.98 0.66 3 1 C3.3125 3.6875 3.3125 3.6875 3 7 C0.625 9.875 0.625 9.875 -2 12 C-2.66 12 -3.32 12 -4 12 C-3.75 9.125 -3.75 9.125 -3 6 C-0.9375 4.625 -0.9375 4.625 1 4 C0.67 2.68 0.34 1.36 0 0 Z " fill="#0F0613" transform="translate(159,73)"/>
<path d="M0 0 C-1.40205505 2.80411009 -3.26727293 3.53830878 -6 5 C-7.33106622 5.34227417 -8.66400079 5.67751743 -10 6 C-10.66 6.66 -11.32 7.32 -12 8 C-12.25 5.6875 -12.25 5.6875 -12 3 C-8.70976944 -0.97569526 -4.75485572 -0.23774279 0 0 Z " fill="#080711" transform="translate(76,36)"/>
<path d="M0 0 C0 1.65 0 3.3 0 5 C-0.886875 4.979375 -1.77375 4.95875 -2.6875 4.9375 C-5.62169631 4.99286219 -8.15493696 5.3305734 -11 6 C-10.125 2.125 -10.125 2.125 -9 1 C-7.67360642 0.76845284 -6.3380119 0.58802634 -5 0.4375 C-4.278125 0.35371094 -3.55625 0.26992187 -2.8125 0.18359375 C-1 0 -1 0 0 0 Z " fill="#747B8C" transform="translate(118,190)"/>
<path d="M0 0 C0.33 0 0.66 0 1 0 C1 2.64 1 5.28 1 8 C1.66 8.33 2.32 8.66 3 9 C2.01 9 1.02 9 0 9 C0 9.66 0 10.32 0 11 C0.99 11 1.98 11 3 11 C2.25 17.75 2.25 17.75 0 20 C-0.66 15.38 -1.32 10.76 -2 6 C-1.34 6 -0.68 6 0 6 C0 4.02 0 2.04 0 0 Z " fill="#F15530" transform="translate(164,74)"/>
<path d="M0 0 C2 2 2 2 2.125 5.125 C2.08375 6.07375 2.0425 7.0225 2 8 C1.01 8.33 0.02 8.66 -1 9 C-1.33 10.65 -1.66 12.3 -2 14 C-2.33 14 -2.66 14 -3 14 C-3.08153933 12.41753293 -3.13943557 10.83383727 -3.1875 9.25 C-3.22230469 8.36828125 -3.25710937 7.4865625 -3.29296875 6.578125 C-2.94923684 3.55328417 -1.99772541 2.24416398 0 0 Z " fill="#100417" transform="translate(67,40)"/>
<path d="M0 0 C0.33 0.66 0.66 1.32 1 2 C3.11327425 2.90725434 3.11327425 2.90725434 5.5625 3.625 C6.38878906 3.88539063 7.21507812 4.14578125 8.06640625 4.4140625 C9.02353516 4.70410156 9.02353516 4.70410156 10 5 C9.67 5.66 9.34 6.32 9 7 C5.7 7 2.4 7 -1 7 C-1 6.34 -1 5.68 -1 5 C-0.34 5 0.32 5 1 5 C1 4.34 1 3.68 1 3 C0.34 2.67 -0.32 2.34 -1 2 C-0.67 1.34 -0.34 0.68 0 0 Z " fill="#0A0F26" transform="translate(132,193)"/>
<path d="M0 0 C0 0.66 0 1.32 0 2 C-0.70125 1.67 -1.4025 1.34 -2.125 1 C-5.29106128 -0.10123871 -7.67064704 -0.22195686 -11 0 C-11.99 0.495 -11.99 0.495 -13 1 C-16.5 1.1875 -16.5 1.1875 -20 1 C-20.66 0.34 -21.32 -0.32 -22 -1 C-4.55861456 -3.03907638 -4.55861456 -3.03907638 0 0 Z " fill="#C3553F" transform="translate(128,28)"/>
<path d="M0 0 C0.99 0.66 1.98 1.32 3 2 C2.34 2 1.68 2 1 2 C1.33 3.65 1.66 5.3 2 7 C1.01 7 0.02 7 -1 7 C-1.33 8.65 -1.66 10.3 -2 12 C-2.33 12 -2.66 12 -3 12 C-3.12375 11.195625 -3.2475 10.39125 -3.375 9.5625 C-3.684375 8.2940625 -3.684375 8.2940625 -4 7 C-4.66 6.67 -5.32 6.34 -6 6 C-5.67 5.01 -5.34 4.02 -5 3 C-3.68 3 -2.36 3 -1 3 C-0.67 2.01 -0.34 1.02 0 0 Z " fill="#181C32" transform="translate(72,74)"/>
<path d="M0 0 C1.98 0 3.96 0 6 0 C6.33 1.32 6.66 2.64 7 4 C8.134375 4.28875 9.26875 4.5775 10.4375 4.875 C11.613125 5.24625 12.78875 5.6175 14 6 C14.33 6.66 14.66 7.32 15 8 C3.84110309 4.9448457 3.84110309 4.9448457 0 2 C0 1.34 0 0.68 0 0 Z " fill="#C2503B" transform="translate(136,155)"/>
<path d="M0 0 C3.3 0.33 6.6 0.66 10 1 C10 2.32 10 3.64 10 5 C7.03 5 4.06 5 1 5 C0.67 3.35 0.34 1.7 0 0 Z " fill="#502C33" transform="translate(120,118)"/>
<path d="M0 0 C6.75 -0.125 6.75 -0.125 9 1 C8.6875 4.375 8.6875 4.375 8 8 C7.01 8.66 6.02 9.32 5 10 C5.33 7.69 5.66 5.38 6 3 C5.38125 2.87625 4.7625 2.7525 4.125 2.625 C2 2 2 2 0 0 Z " fill="#121723" transform="translate(110,101)"/>
<path d="M0 0 C0.33 0.66 0.66 1.32 1 2 C0.34 2 -0.32 2 -1 2 C-1.33 7.94 -1.66 13.88 -2 20 C-3.65 20.33 -5.3 20.66 -7 21 C-6.34 19.68 -5.68 18.36 -5 17 C-4.34 17 -3.68 17 -3 17 C-3.03480469 16.02417969 -3.06960937 15.04835938 -3.10546875 14.04296875 C-3.13253906 12.77066406 -3.15960938 11.49835938 -3.1875 10.1875 C-3.22230469 8.92292969 -3.25710937 7.65835938 -3.29296875 6.35546875 C-3 3 -3 3 -1.48828125 1.05078125 C-0.75158203 0.53064453 -0.75158203 0.53064453 0 0 Z " fill="#400A0A" transform="translate(59,55)"/>
<path d="M0 0 C3.78685592 0.39619174 5.53990633 1.46986352 8.5859375 3.7109375 C9.45992187 4.33742188 10.33390625 4.96390625 11.234375 5.609375 C11.88664062 6.17914063 12.53890625 6.74890625 13.2109375 7.3359375 C13.2109375 7.9959375 13.2109375 8.6559375 13.2109375 9.3359375 C12.2209375 9.0059375 11.2309375 8.6759375 10.2109375 8.3359375 C10.2109375 7.6759375 10.2109375 7.0159375 10.2109375 6.3359375 C5.28321719 4.56701226 0.32458764 3.4041222 -4.7890625 2.3359375 C-2.7890625 0.3359375 -2.7890625 0.3359375 0 0 Z " fill="#3E0907" transform="translate(119.7890625,26.6640625)"/>
<path d="M0 0 C1.32 0.33 2.64 0.66 4 1 C3.67 1.99 3.34 2.98 3 4 C2.34 4 1.68 4 1 4 C0.79375 4.804375 0.5875 5.60875 0.375 6.4375 C-0.07875 7.283125 -0.5325 8.12875 -1 9 C-4.125 9.8125 -4.125 9.8125 -7 10 C-6.21625 9.278125 -5.4325 8.55625 -4.625 7.8125 C-2.15587562 5.16700959 -1.06739722 3.39626389 0 0 Z " fill="#F74B27" transform="translate(76,144)"/>
<path d="M0 0 C4.455 0.99 4.455 0.99 9 2 C9 3.32 9 4.64 9 6 C6.03 5.505 6.03 5.505 3 5 C3 4.34 3 3.68 3 3 C1.68 3.33 0.36 3.66 -1 4 C-0.67 2.68 -0.34 1.36 0 0 Z " fill="#FD5220" transform="translate(73,132)"/>
<path d="M0 0 C0.99 0 1.98 0 3 0 C2.31063929 3.91121498 1.21749819 7.55508596 -0.0625 11.3125 C-0.42472656 12.38113281 -0.78695312 13.44976562 -1.16015625 14.55078125 C-1.43730469 15.35902344 -1.71445313 16.16726562 -2 17 C-3.44715727 13.12813552 -2.5441918 10.1767672 -1.5625 6.25 C-1.27503906 5.07953125 -0.98757812 3.9090625 -0.69140625 2.703125 C-0.46324219 1.81109375 -0.23507813 0.9190625 0 0 Z " fill="#C0C8D7" transform="translate(133,93)"/>
<path d="M0 0 C2.97 0 5.94 0 9 0 C9 1.32 9 2.64 9 4 C6.21176345 5.0326802 5.1322726 5.04509293 2.25 4.0625 C1.5075 3.711875 0.765 3.36125 0 3 C0 2.01 0 1.02 0 0 Z " fill="#606778" transform="translate(131,192)"/>
<path d="M0 0 C0.66 0 1.32 0 2 0 C1.67 2.64 1.34 5.28 1 8 C2.65 8 4.3 8 6 8 C3.64561267 9.42944945 2.51967567 10.08661261 -0.25 9.625 C-0.8275 9.41875 -1.405 9.2125 -2 9 C-2.25 3.375 -2.25 3.375 0 0 Z " fill="#CED4D9" transform="translate(72,63)"/>
<path d="M0 0 C2.97 0 5.94 0 9 0 C9.33 0.66 9.66 1.32 10 2 C6.77208445 4.1519437 5.71599191 4.20086443 2 4 C1.34 2.68 0.68 1.36 0 0 Z " fill="#10121D" transform="translate(118,79)"/>
<path d="M0 0 C1.32 0.66 2.64 1.32 4 2 C3.34 3.32 2.68 4.64 2 6 C1.34 6 0.68 6 0 6 C0 6.66 0 7.32 0 8 C-0.66 8 -1.32 8 -2 8 C-2.33 8.99 -2.66 9.98 -3 11 C-3 10.01 -3 9.02 -3 8 C-3.66 7.67 -4.32 7.34 -5 7 C-3.68 7 -2.36 7 -1 7 C-1.66 5.68 -2.32 4.36 -3 3 C-2.34 3 -1.68 3 -1 3 C-0.67 2.01 -0.34 1.02 0 0 Z " fill="#20192D" transform="translate(112,112)"/>
<path d="M0 0 C0.66 0 1.32 0 2 0 C1.42415568 2.38564077 0.77772405 4.66682784 0 7 C1.65 6.01 3.3 5.02 5 4 C4.25 5.9375 4.25 5.9375 3 8 C0.875 8.75 0.875 8.75 -1 9 C-1.80967438 6.08517222 -2.21845993 4.53886783 -1.0625 1.6875 C-0.711875 1.130625 -0.36125 0.57375 0 0 Z " fill="#C4C8D3" transform="translate(124,102)"/>
<path d="M0 0 C1.98 0 3.96 0 6 0 C6.33 1.32 6.66 2.64 7 4 C4.36 4 1.72 4 -1 4 C-0.67 2.68 -0.34 1.36 0 0 Z " fill="#363942" transform="translate(119,72)"/>
<path d="M0 0 C-2.297221 1.74271938 -4.59866729 3.39911152 -7 5 C-7.57993699 7.19454681 -7.57993699 7.19454681 -7.6875 9.625 C-7.75324219 10.44226562 -7.81898437 11.25953125 -7.88671875 12.1015625 C-7.92410156 12.72804688 -7.96148437 13.35453125 -8 14 C-8.33 14 -8.66 14 -9 14 C-9 10.04 -9 6.08 -9 2 C-5.23312136 0.11656068 -3.97041037 -0.22057835 0 0 Z " fill="#D0513C" transform="translate(72,34)"/>
<path d="M0 0 C0.33 0.66 0.66 1.32 1 2 C1.66 2.33 2.32 2.66 3 3 C2.01 3.66 1.02 4.32 0 5 C-0.41666667 8 -0.41666667 8 0 11 C0.66 11.66 1.32 12.32 2 13 C-0.31 12.67 -2.62 12.34 -5 12 C-4.34 11.67 -3.68 11.34 -3 11 C-2.64820803 8.6693782 -2.31669821 6.33564933 -2 4 C-0.9375 1.5625 -0.9375 1.5625 0 0 Z " fill="#2E3341" transform="translate(123,99)"/>
<path d="M0 0 C1.65 0 3.3 0 5 0 C5 0.99 5 1.98 5 3 C5.66 3.33 6.32 3.66 7 4 C5.35 4.66 3.7 5.32 2 6 C1.67 5.01 1.34 4.02 1 3 C0.34 2.67 -0.32 2.34 -1 2 C-0.67 1.34 -0.34 0.68 0 0 Z " fill="#060818" transform="translate(73,76)"/>
<path d="M0 0 C0.99 0.33 1.98 0.66 3 1 C5.05893621 1.22325814 7.12233653 1.40705759 9.1875 1.5625 C10.27417969 1.64628906 11.36085938 1.73007813 12.48046875 1.81640625 C13.72763672 1.90728516 13.72763672 1.90728516 15 2 C15 2.33 15 2.66 15 3 C10.38 3.33 5.76 3.66 1 4 C1 4.66 1 5.32 1 6 C0.34 6 -0.32 6 -1 6 C-1.042721 4.33388095 -1.04063832 2.66617115 -1 1 C-0.67 0.67 -0.34 0.34 0 0 Z " fill="#C2C3CD" transform="translate(115,76)"/>
<path d="M0 0 C0.33 0 0.66 0 1 0 C1.78509961 10.93905458 1.78509961 10.93905458 -1.3125 15.125 C-3.19389819 16.43760339 -5.09124928 17.72749952 -7 19 C-5.82744291 15.66272214 -4.81131596 13.22562513 -2 11 C-1.34 11 -0.68 11 0 11 C0 7.37 0 3.74 0 0 Z " fill="#AF4837" transform="translate(55,60)"/>
<path d="M0 0 C4.86896303 0.59619955 9.32790951 1.56976822 14 3 C14 3.66 14 4.32 14 5 C8.94744036 4.36843005 4.70406799 2.86540627 0 1 C0 0.67 0 0.34 0 0 Z " fill="#CC5541" transform="translate(154,163)"/>
<path d="M0 0 C0.99 0 1.98 0 3 0 C2.67 2.64 2.34 5.28 2 8 C2.66 8 3.32 8 4 8 C4 8.99 4 9.98 4 11 C2.68 11 1.36 11 0 11 C0 7.37 0 3.74 0 0 Z " fill="#EB5B3B" transform="translate(161,101)"/>
<path d="M0 0 C1.65 0.33 3.3 0.66 5 1 C5 2.32 5 3.64 5 5 C2.16032769 5 -0.23735711 4.59732819 -3 4 C-2.01 2.68 -1.02 1.36 0 0 Z " fill="#DCE0ED" transform="translate(81,62)"/>
<path d="M0 0 C0.33 0.66 0.66 1.32 1 2 C3.02463255 2.65213292 3.02463255 2.65213292 5 3 C3.02 3.99 1.04 4.98 -1 6 C-1.33 5.34 -1.66 4.68 -2 4 C-2 4.66 -2 5.32 -2 6 C-3.32 6.33 -4.64 6.66 -6 7 C-5.34 5.35 -4.68 3.7 -4 2 C-2.68 2 -1.36 2 0 2 C0 1.34 0 0.68 0 0 Z " fill="#11182A" transform="translate(64,193)"/>
<path d="M0 0 C0.33 0 0.66 0 1 0 C1.17942163 3.94727588 1.09350689 6.5980513 -1 10 C-1.66 10 -2.32 10 -3 10 C-3.75 7.8125 -3.75 7.8125 -4 5 C-2.125 2.1875 -2.125 2.1875 0 0 Z " fill="#191D36" transform="translate(93,108)"/>
<path d="M0 0 C0.66 0 1.32 0 2 0 C1.814375 0.78375 1.62875 1.5675 1.4375 2.375 C0.74037734 4.97089775 0.74037734 4.97089775 2 7 C-1 8 -1 8 -4 7 C-2.92598892 4.08482708 -2.22189824 2.22189824 0 0 Z " fill="#222833" transform="translate(104,93)"/>
<path d="M0 0 C0 1.65 0 3.3 0 5 C-2.31 5 -4.62 5 -7 5 C-7 4.01 -7 3.02 -7 2 C-4.35261084 0.5393715 -3.10551666 0 0 0 Z " fill="#7C8395" transform="translate(126,190)"/>
<path d="M0 0 C1.31579179 2.63158358 1.01095531 4.93843075 0.96875 7.82421875 C1.01364639 10.95012964 1.48646266 13.91877596 2 17 C1.01 16.34 0.02 15.68 -1 15 C-1.328125 11.77734375 -1.328125 11.77734375 -1.25 7.9375 C-1.23453125 6.66777344 -1.2190625 5.39804688 -1.203125 4.08984375 C-1 1 -1 1 0 0 Z " fill="#DE583E" transform="translate(48,75)"/>
<path d="M0 0 C0.66 0 1.32 0 2 0 C2 0.66 2 1.32 2 2 C2.66 2 3.32 2 4 2 C4 4.64 4 7.28 4 10 C3.34 10 2.68 10 2 10 C2 8.02 2 6.04 2 4 C1.01 3.67 0.02 3.34 -1 3 C-0.67 2.01 -0.34 1.02 0 0 Z " fill="#D75942" transform="translate(160,70)"/>
<path d="M0 0 C0.99 0.33 1.98 0.66 3 1 C2.01 3.31 1.02 5.62 0 8 C-0.99 7.67 -1.98 7.34 -3 7 C-1.125 1.125 -1.125 1.125 0 0 Z " fill="#BEC5CD" transform="translate(98,97)"/>
<path d="M0 0 C0.66 0 1.32 0 2 0 C1.67 1.65 1.34 3.3 1 5 C-0.32 5 -1.64 5 -3 5 C-3 5.66 -3 6.32 -3 7 C-4.32 6.67 -5.64 6.34 -7 6 C-3.25 3 -3.25 3 -1 3 C-0.67 2.01 -0.34 1.02 0 0 Z " fill="#EAF0F7" transform="translate(86,78)"/>
<path d="M0 0 C0.33 0 0.66 0 1 0 C1.33 1.98 1.66 3.96 2 6 C2.99 5.67 3.98 5.34 5 5 C5.33 6.32 5.66 7.64 6 9 C4.35 9.66 2.7 10.32 1 11 C-0.28317892 7.15046324 -0.06643637 4.05261865 0 0 Z " fill="#CED0DD" transform="translate(96,63)"/>
<path d="M0 0 C0.66 0 1.32 0 2 0 C2 0.99 2 1.98 2 3 C2.99 3 3.98 3 5 3 C4.67 3.99 4.34 4.98 4 6 C2.35 6 0.7 6 -1 6 C-1.042721 4.33388095 -1.04063832 2.66617115 -1 1 C-0.67 0.67 -0.34 0.34 0 0 Z " fill="#6E7588" transform="translate(101,189)"/>
<path d="M0 0 C0.33 0 0.66 0 1 0 C1 4.62 1 9.24 1 14 C-0.65 14.33 -2.3 14.66 -4 15 C-3.27876953 14.18789062 -3.27876953 14.18789062 -2.54296875 13.359375 C-0.68676442 10.52102712 -0.51262344 8.61207374 -0.3125 5.25 C-0.21388672 3.77273437 -0.21388672 3.77273437 -0.11328125 2.265625 C-0.07589844 1.51796875 -0.03851563 0.7703125 0 0 Z " fill="#C0493C" transform="translate(160,101)"/>
<path d="M0 0 C0.66 0.33 1.32 0.66 2 1 C2 2.65 2 4.3 2 6 C2.99 6 3.98 6 5 6 C4.67 6.66 4.34 7.32 4 8 C1.67843403 8.40729228 -0.6568787 8.74438677 -3 9 C-2.690625 8.443125 -2.38125 7.88625 -2.0625 7.3125 C-0.94238179 4.87459567 -0.43962636 2.63775814 0 0 Z " fill="#222A3B" transform="translate(105,106)"/>
<path d="M0 0 C0.66 0 1.32 0 2 0 C1.835 0.928125 1.67 1.85625 1.5 2.8125 C0.92251612 5.95621353 0.92251612 5.95621353 1 9 C0.01 9 -0.98 9 -2 9 C-2.25 3.375 -2.25 3.375 0 0 Z " fill="#D5DCE6" transform="translate(109,103)"/>
<path d="M0 0 C2.5654594 2.5654594 2.54046087 4.47686668 3 8 C0.525 7.01 0.525 7.01 -2 6 C-1.125 1.125 -1.125 1.125 0 0 Z " fill="#C85641" transform="translate(161,80)"/>
<path d="M0 0 C0.66 1.32 1.32 2.64 2 4 C0.625 5.5 0.625 5.5 -1 7 C-1.66 7 -2.32 7 -3 7 C-3.33 6.01 -3.66 5.02 -4 4 C-4.66 3.34 -5.32 2.68 -6 2 C-2.25 0.875 -2.25 0.875 0 2 C0 1.34 0 0.68 0 0 Z " fill="#D5D9E1" transform="translate(86,74)"/>
<path d="M0 0 C0.66 0 1.32 0 2 0 C2 0.66 2 1.32 2 2 C2.928125 1.690625 2.928125 1.690625 3.875 1.375 C4.57625 1.25125 5.2775 1.1275 6 1 C6.66 1.66 7.32 2.32 8 3 C5.03 3.66 2.06 4.32 -1 5 C-1.33 4.01 -1.66 3.02 -2 2 C-1.34 1.34 -0.68 0.68 0 0 Z " fill="#010518" transform="translate(74,57)"/>
<path d="M0 0 C0.66 0.33 1.32 0.66 2 1 C0.71372289 2.17260611 -0.57919783 3.3379283 -1.875 4.5 C-2.59429687 5.1496875 -3.31359375 5.799375 -4.0546875 6.46875 C-6 8 -6 8 -8 8 C-6.49776416 3.79373966 -3.71449966 2.26099979 0 0 Z " fill="#450C0C" transform="translate(37,174)"/>
<path d="M0 0 C1.4409026 0.22957777 2.87777015 0.48456354 4.3125 0.75 C5.11300781 0.88921875 5.91351563 1.0284375 6.73828125 1.171875 C9.53810196 2.19702524 10.43899479 3.51451598 12 6 C10.3713449 5.57630928 8.74712622 5.1355377 7.125 4.6875 C6.22007812 4.44386719 5.31515625 4.20023438 4.3828125 3.94921875 C2 3 2 3 0 0 Z " fill="#3C0A07" transform="translate(166,168)"/>
<path d="M0 0 C3 0 3 0 4.6875 1.3125 C6 3 6 3 6 6 C3.03 5.505 3.03 5.505 0 5 C0 3.35 0 1.7 0 0 Z " fill="#57353A" transform="translate(94,118)"/>
<path d="M0 0 C2.10633718 1.70828921 2.93801608 2.52148416 3.29296875 5.26171875 C3.25816406 6.06222656 3.22335938 6.86273438 3.1875 7.6875 C3.16042969 8.49574219 3.13335937 9.30398437 3.10546875 10.13671875 C3.07066406 10.75160156 3.03585938 11.36648437 3 12 C0.50494038 9.50494038 0.64051624 8.32671112 0.375 4.875 C0.30023438 3.96492188 0.22546875 3.05484375 0.1484375 2.1171875 C0.09945312 1.41851562 0.05046875 0.71984375 0 0 Z " fill="#B84D3A" transform="translate(50,90)"/>
<path d="M0 0 C1.65 0.33 3.3 0.66 5 1 C4.67 1.66 4.34 2.32 4 3 C4.33 3.33 4.66 3.66 5 4 C5 4.33 5 4.66 5 5 C2.36 5 -0.28 5 -3 5 C-2.34 4.01 -1.68 3.02 -1 2 C-0.67 2 -0.34 2 0 2 C0 1.34 0 0.68 0 0 Z " fill="#02061E" transform="translate(88,195)"/>
<path d="M0 0 C0.66 0.66 1.32 1.32 2 2 C1.01 2.495 1.01 2.495 0 3 C0.33 3.66 0.66 4.32 1 5 C-1.64 5 -4.28 5 -7 5 C-4.87219421 2.65941363 -2.88437779 1.29299694 0 0 Z " fill="#01061D" transform="translate(118,195)"/>
<path d="M0 0 C1.32 0.66 2.64 1.32 4 2 C4 2.66 4 3.32 4 4 C3.01 4 2.02 4 1 4 C1 5.65 1 7.3 1 9 C-1 6 -1 6 -0.625 2.8125 C-0.41875 1.884375 -0.2125 0.95625 0 0 Z " fill="#100816" transform="translate(93,114)"/>
<path d="M0 0 C0.33 0 0.66 0 1 0 C1 2.64 1 5.28 1 8 C-0.32 8.33 -1.64 8.66 -3 9 C-2.01 6.03 -1.02 3.06 0 0 Z " fill="#170514" transform="translate(158,105)"/>
<path d="M0 0 C1.98 0.495 1.98 0.495 4 1 C3.67 2.32 3.34 3.64 3 5 C1.68 5 0.36 5 -1 5 C-0.67 3.35 -0.34 1.7 0 0 Z " fill="#181A26" transform="translate(76,66)"/>
<path d="M0 0 C0.66 0 1.32 0 2 0 C1.62403791 2.78211944 1.32681541 4.5879284 -0.4375 6.8125 C-2 8 -2 8 -4 8 C-3.67 6.68 -3.34 5.36 -3 4 C-2.01 4 -1.02 4 0 4 C0 2.68 0 1.36 0 0 Z " fill="#D75540" transform="translate(61,48)"/>
<path d="M0 0 C0.66 0.33 1.32 0.66 2 1 C-0.25 3.5 -0.25 3.5 -3 6 C-4.32 6 -5.64 6 -7 6 C-6.01 5.67 -5.02 5.34 -4 5 C-3.67 4.01 -3.34 3.02 -3 2 C-2.01 1.34 -1.02 0.68 0 0 Z " fill="#0F0515" transform="translate(72,159)"/>
<path d="M0 0 C1.98 0.66 3.96 1.32 6 2 C5.360625 2.103125 4.72125 2.20625 4.0625 2.3125 C3.381875 2.539375 2.70125 2.76625 2 3 C1.67 3.99 1.34 4.98 1 6 C0.34 5.34 -0.32 4.68 -1 4 C-0.625 1.875 -0.625 1.875 0 0 Z " fill="#CDD2E0" transform="translate(71,80)"/>
<path d="M0 0 C1.2065625 0.0309375 1.2065625 0.0309375 2.4375 0.0625 C1.16884318 2.59981364 -0.05959121 2.84896846 -2.5625 4.0625 C-3.2225 4.7225 -3.8825 5.3825 -4.5625 6.0625 C-3.48963568 0.08511307 -3.48963568 0.08511307 0 0 Z " fill="#1A1C2D" transform="translate(101.5625,71.9375)"/>
<path d="M0 0 C0.66 0.33 1.32 0.66 2 1 C1.19152271 2.16945792 0.37810888 3.33550461 -0.4375 4.5 C-0.88996094 5.1496875 -1.34242187 5.799375 -1.80859375 6.46875 C-2.20175781 6.9740625 -2.59492187 7.479375 -3 8 C-3.33 8 -3.66 8 -4 8 C-4.25 5.6875 -4.25 5.6875 -4 3 C-2 1.1875 -2 1.1875 0 0 Z " fill="#4C0E0F" transform="translate(68,36)"/>
<path d="M0 0 C0.99 0 1.98 0 3 0 C2.67 1.65 2.34 3.3 2 5 C1.01 5.33 0.02 5.66 -1 6 C-0.67 4.02 -0.34 2.04 0 0 Z " fill="#52586A" transform="translate(127,192)"/>
<path d="M0 0 C1.32 0.33 2.64 0.66 4 1 C4 2.65 4 4.3 4 6 C3.01 6.495 3.01 6.495 2 7 C0 4 0 4 0 0 Z " fill="#5F6678" transform="translate(85,192)"/>
<path d="M0 0 C1.98 0 3.96 0 6 0 C5.67 1.32 5.34 2.64 5 4 C3.33333333 4 1.66666667 4 0 4 C0 2.68 0 1.36 0 0 Z " fill="#848C9C" transform="translate(141,192)"/>
<path d="M0 0 C0.66 0 1.32 0 2 0 C1.01 3.3 0.02 6.6 -1 10 C-1.66 9.67 -2.32 9.34 -3 9 C-3 8.01 -3 7.02 -3 6 C-2.34 6 -1.68 6 -1 6 C-0.67 4.02 -0.34 2.04 0 0 Z " fill="#C24D3F" transform="translate(24,186)"/>
<path d="M0 0 C3.93774177 -0.36630156 5.56539771 -0.30233203 8.875 2 C9.926875 2.99 9.926875 2.99 11 4 C6.44262737 3.56179109 3.42346555 3.14958831 0 0 Z " fill="#12040D" transform="translate(160,168)"/>
<path d="M0 0 C1.65 0 3.3 0 5 0 C5.125 3.375 5.125 3.375 5 7 C4.34 7.66 3.68 8.32 3 9 C3 7.02 3 5.04 3 3 C2.01 2.67 1.02 2.34 0 2 C0 1.34 0 0.68 0 0 Z " fill="#0B0415" transform="translate(84,128)"/>
<path d="M0 0 C0.33 0 0.66 0 1 0 C1.1546875 1.175625 1.1546875 1.175625 1.3125 2.375 C1.77595022 5.33045181 1.77595022 5.33045181 5 7 C2.69 6.67 0.38 6.34 -2 6 C-2 4.68 -2 3.36 -2 2 C-1.34 2 -0.68 2 0 2 C0 1.34 0 0.68 0 0 Z " fill="#583336" transform="translate(112,118)"/>
<path d="M0 0 C0.66 0 1.32 0 2 0 C2.625 2.875 2.625 2.875 3 6 C2.34 6.66 1.68 7.32 1 8 C1 7.34 1 6.68 1 6 C0.34 5.67 -0.32 5.34 -1 5 C-0.67 3.35 -0.34 1.7 0 0 Z " fill="#5F6175" transform="translate(129,111)"/>
<path d="M0 0 C2 2 2 2 3 5 C3.66 5.66 4.32 6.32 5 7 C4.34 7 3.68 7 3 7 C2.67 7.99 2.34 8.98 2 10 C-0.09350689 6.5980513 -0.17942163 3.94727588 0 0 Z " fill="#D4523B" transform="translate(57,106)"/>
<path d="M0 0 C0.66 0 1.32 0 2 0 C1.125 5.75 1.125 5.75 0 8 C0.66 8.33 1.32 8.66 2 9 C1.01 9 0.02 9 -1 9 C-1.09765625 2.84765625 -1.09765625 2.84765625 -1 1 C-0.67 0.67 -0.34 0.34 0 0 Z " fill="#ECF1F8" transform="translate(114,104)"/>
<path d="M0 0 C1.32 0.33 2.64 0.66 4 1 C4 1.66 4 2.32 4 3 C4.66 3 5.32 3 6 3 C6 3.66 6 4.32 6 5 C4.35 5 2.7 5 1 5 C0.67 3.35 0.34 1.7 0 0 Z " fill="#03071F" transform="translate(102,195)"/>
<path d="M0 0 C0.99 0.33 1.98 0.66 3 1 C3.1875 3.875 3.1875 3.875 3 7 C2.01 7.66 1.02 8.32 0 9 C0 6.03 0 3.06 0 0 Z " fill="#430605" transform="translate(159,73)"/>
<path d="M0 0 C-0.33 1.65 -0.66 3.3 -1 5 C-1.99 5 -2.98 5 -4 5 C-4.33 3.68 -4.66 2.36 -5 1 C-2 0 -2 0 0 0 Z " fill="#E5522E" transform="translate(22,195)"/>
<path d="M0 0 C0.99 0 1.98 0 3 0 C2.34 2.31 1.68 4.62 1 7 C0.34 7 -0.32 7 -1 7 C-1.33 5.68 -1.66 4.36 -2 3 C-1.34 2.67 -0.68 2.34 0 2 C0 1.34 0 0.68 0 0 Z " fill="#0C1225" transform="translate(94,98)"/>
<path d="M0 0 C0.93065133 2.60582371 1.14917407 3.64198224 0.0625 6.25 C-0.4634375 7.11625 -0.4634375 7.11625 -1 8 C-1.66 7.01 -2.32 6.02 -3 5 C-2.01 3.35 -1.02 1.7 0 0 Z " fill="#161D33" transform="translate(132,94)"/>
<path d="M0 0 C0.99 0 1.98 0 3 0 C2.34 1.65 1.68 3.3 1 5 C-0.32 4.34 -1.64 3.68 -3 3 C-2.01 2.67 -1.02 2.34 0 2 C0 1.34 0 0.68 0 0 Z " fill="#02061C" transform="translate(127,97)"/>
<path d="M0 0 C3.875 1.75 3.875 1.75 5 4 C3.02 4 1.04 4 -1 4 C-1.33 3.34 -1.66 2.68 -2 2 C-1.34 2 -0.68 2 0 2 C0 1.34 0 0.68 0 0 Z " fill="#E0E2EC" transform="translate(116,80)"/>
</svg>
